<?xml version="1.0" standalone="no"?>
<!DOCTYPE svg PUBLIC "-//W3C//DTD SVG 1.1//EN" "http://www.w3.org/Graphics/SVG/1.1/DTD/svg11.dtd">
<svg width="64px" height="64px" version="1.1" xmlns="http://www.w3.org/2000/svg" xmlns:xlink="http://www.w3.org/1999/xlink" xml:space="preserve" style="fill-rule:evenodd;clip-rule:evenodd;stroke-linejoin:round;stroke-miterlimit:1.41421;">
    <g>
        <g>
            <g id="_49116176">
                <path d="M0.89272,32.0001C0.89272,14.849 14.8473,0.893314 32.0002,0.893314C49.149,0.893314 63.102,14.8492 63.102,32.0001C63.102,49.155 49.149,63.1071 32.0002,63.1071C14.8471,63.1069 0.89272,49.1548 0.89272,32.0001ZM9.85922e-16,32.0001C9.85406e-16,49.6468 14.3558,64 32.0002,64C49.6443,64 64,49.6468 64,32.0001C64,14.3539 49.6443,-1.87437e-18 32.0002,-1.35813e-18C14.3558,-1.9748e-15 9.86438e-16,14.3538 9.85922e-16,32.0001Z" style="fill:white;fill-rule:nonzero;"/>
            </g>
            <g id="_48873840">
                <path d="M53.0226,37.2048C52.1486,38.0157 50.9152,38.0277 49.9164,38.6868C49.4603,39.1432 49.574,39.6668 49.7611,40.2437C50.1312,40.9729 49.9904,40.8993 49.4763,41.0709C48.2709,41.4722 48.2828,42.7918 46.8308,42.5729C46.7488,42.596 46.4103,42.425 46.613,42.6707C46.7689,42.8538 46.8308,42.7447 47.1392,42.7799C47.6548,42.8065 47.8496,42.5919 48.2119,42.346C48.7271,41.9097 48.6644,41.7458 49.3045,41.4412C49.4564,41.4023 49.8308,41.2936 50.0414,41.3676C50.182,41.4965 50.1865,41.5002 50.2092,41.6171C50.1273,41.9716 49.6128,42.2646 49.4132,42.3852C49.6868,42.5848 50.1941,42.9207 50.1081,43.2009C49.9902,43.3879 49.9982,43.4199 49.7956,43.5167C49.5072,43.6573 48.9339,43.6337 48.3915,43.2318C48.3095,43.259 48.2197,43.0764 47.9902,43.2951C48.5163,43.8376 49.2535,43.7154 49.3634,43.8253C49.4761,43.934 48.9689,44.5893 48.9497,44.7301C48.5941,45.6709 49.0277,46.5368 48.8398,47.5155C48.723,48.2767 48.4921,48.6396 47.8263,49.1236C46.597,49.9738 45.7349,50.2199 44.3616,50.4423C40.7493,50.6878 38.4709,49.4473 35.8734,47.5038C33.2709,45.561 32.2759,44.5315 31.4652,43.4388C31.4532,42.9904 31.7808,42.6506 31.5003,42.1673C31.2656,42.2493 31.2892,42.5567 31.1484,42.7324C30.9458,43.0169 30.4663,43.2238 30.123,43.189C29.0544,42.8264 28.9956,41.5699 28.3244,40.8515C26.893,39.4392 26.4908,37.4029 27.2558,35.698C27.5244,35.1715 28.0087,34.6641 28.5509,34.4763C29.2181,34.3716 30.0059,34.3716 30.4425,35.0189C30.9579,35.5111 31.2775,36.3103 31.406,37.0163C31.6169,37.3559 31.3595,37.7464 31.7108,38.0271C32.3228,38.0858 32.8491,38.2378 33.4384,37.8632C33.8757,37.922 33.9339,38.4058 34.2652,38.6163L34.8501,38.9677C35.4745,39.2244 36.2784,39.2244 36.8044,38.768C37.7924,37.7585 37.5776,36.7167 37.9172,35.6002C38.8608,34.7659 39.4852,33.5715 39.4729,32.4048C39.4153,31.6879 39.1575,30.9457 38.7321,30.2313C38.802,29.8071 39.0404,29.4903 39.1764,29.1117C39.2972,29.0419 39.45,29.0419 39.5785,29.0189C40.6276,28.7962 41.5801,27.8446 41.9895,26.8414L42.0834,26.7476C43.2846,26.6661 44.7787,26.2401 45.469,24.985C45.6137,24.4427 46.2219,24.8442 46.6002,24.7151C47.2366,24.6805 47.8715,24.3249 48.3518,23.9154C48.4914,23.8685 48.5977,24.021 48.6832,24.0911C48.9641,25.0307 49.4791,25.9366 49.776,26.8926C50.1381,27.6067 50.2711,28.2889 50.1381,29.0189C50.2903,30.1348 50.9307,31.1842 51.3748,32.3118C51.8201,33.5014 52.5141,34.6989 53.0215,35.9243C53.1154,36.4164 53.3259,36.8072 53.0226,37.2048ZM53.2683,35.1523C52.4212,33.1977 51.4697,31.5204 50.7756,29.5541C50.2804,28.8479 50.565,28.099 50.502,27.3416C50.1865,26.1672 49.6908,25.262 49.2229,24.1186C49.0901,23.7911 49.4565,23.6983 49.5852,23.4632C49.7959,22.8861 49.6484,22.2391 49.3867,21.6845C49.2818,21.3679 49.6592,21.1463 49.5852,20.8187C49.5742,20.3114 49.1289,19.9679 48.7746,19.6991C48.243,18.9338 47.9973,18.5325 47.3383,17.8414L47.3383,17.7086C47.6697,17.416 47.9396,16.9094 47.9317,16.4762C47.7989,15.9847 47.6939,15.5244 47.2212,15.1807C46.4683,14.7593 45.7044,15.4185 45.107,15.7582C44.9396,15.8749 44.8576,15.993 44.6229,15.973C44.4711,15.918 44.3152,15.8603 44.1515,15.8013C43.9988,15.9768 43.8082,16.1648 43.5781,16.3476L44.3074,16.6444C44.331,16.6645 44.3422,16.6791 44.3422,16.7071C44.3422,16.7179 44.3342,16.7422 44.3342,16.761C44.2843,16.8041 42.6418,18.2443 42.6418,18.2443C42.6377,18.2473 39.6843,21.1618 39.6843,21.1618C39.6843,21.1656 38.8416,22.0249 38.8416,22.0249C38.8348,22.0286 36.2132,25.0521 36.2132,25.0521C34.8398,26.6442 32.8107,29.2538 31.5943,31.1653C30.9582,32.0392 30.3259,33.0112 29.7367,33.9319C29.6748,34.0332 29.5541,34.0249 29.3623,34.0021C29.2336,33.9859 29.0976,33.9751 28.9799,34.014L28.9836,34.014L28.9568,34.0211C28.9648,34.0179 28.9728,34.0179 28.9799,34.014C28.3127,34.088 27.8252,34.3108 27.307,34.778C26.6359,35.5742 26.2965,36.534 26.2965,37.5718C26.2965,38.286 26.4564,39.0388 26.7836,39.7918C26.6469,40.1975 26.3316,40.5531 26.0468,40.8687L25.8869,41.0442L25.6843,41.2469C25.5556,41.3681 25.4028,41.512 25.2976,41.6485L25.286,41.6608L25.2777,41.6795C25.2668,41.7227 25.2588,41.8045 25.3918,41.867L25.4226,41.8864L25.4576,41.8791C26.0777,41.7303 26.4681,41.262 26.8466,40.8097C26.8466,40.8097 27.0844,40.5368 27.1191,40.4937C27.178,40.4859 27.2252,40.517 27.3031,40.5878C27.3461,40.623 27.3959,40.6539 27.451,40.6806C27.451,40.6969 27.451,40.7126 27.451,40.7126C27.451,40.7126 27.443,40.9153 27.443,40.962C25.973,42.4136 24.7744,43.2324 23.2068,44.1534L22.9451,44.3052L23.2498,44.3372C23.859,44.3993 24.4402,44.0554 25.0014,43.7238L25.6764,43.3533C26.2965,43.0338 26.8736,42.5466 27.4359,42.0781C27.4359,42.0781 27.9383,41.6564 27.9929,41.6096C28.048,41.6217 28.1058,41.6871 28.1488,41.7422C28.1488,41.7422 28.1847,41.7771 28.2076,41.8013C28.2155,41.8162 28.6761,42.7292 28.7033,42.7838C28.5984,43.2132 28.5554,43.6459 28.5554,44.0792C28.5554,45.0192 28.758,45.96 28.957,46.8769C29.1556,47.7817 29.3584,48.7137 29.3584,49.6306C29.3584,49.6934 29.3584,49.7514 29.3547,49.8104C29.3547,50.0951 29.0471,50.4693 28.7854,50.59C28.2,50.688 27.4859,50.696 26.7369,50.704C25.8133,50.7109 24.8574,50.7189 24.1234,50.9177C23.89,50.9458 23.6162,51.0235 23.3515,51.0973C23.0937,51.1672 22.8242,51.2461 22.5742,51.2774L22.5513,51.2811L22.5204,51.3041L22.4304,51.3672C22.3486,51.4172 22.243,51.484 22.2199,51.6047C22.2199,51.6168 22.2158,51.628 22.2158,51.6399C22.2158,51.7059 22.2466,51.7886 22.3017,51.8384C22.3527,51.8937 22.4146,51.9164 22.4812,51.9138C22.7029,51.9138 22.9527,51.8195 23.1943,51.734C23.3621,51.6711 23.5378,51.6092 23.6976,51.5811C25.2316,51.3203 26.9083,51.3711 28.0476,51.4641C28.6091,51.4563 29.5296,51.4373 29.8613,50.6373C29.982,50.3134 30.0251,50.0129 30.0251,49.724C30.0251,49.4047 29.9749,49.0999 29.9244,48.7845L29.8224,48.0073C29.7566,47.5358 29.6544,47.0636 29.5575,46.6031C29.3856,45.796 29.2101,44.9607 29.2101,44.1142C29.2101,43.9423 29.2181,43.7704 29.2332,43.5985C29.2492,43.5755 29.2679,43.5517 29.2921,43.5487C29.3388,43.5407 29.4247,43.6107 29.4948,43.6657C29.5723,43.7233 29.6544,43.7864 29.7442,43.8097C29.846,43.8831 29.9589,43.9075 30.064,43.9194C30.2126,43.9382 30.2908,43.9583 30.3376,44.0712C30.3995,44.8123 30.6574,45.5811 30.9068,46.3264C31.0788,46.8367 31.2544,47.3642 31.3673,47.8825C31.57,48.7845 31.7728,49.7012 31.7728,50.6064C31.7728,51.1448 31.7028,51.6791 31.512,52.2027C31.1218,52.9196 30.2599,52.9196 29.4331,52.9235L29.1831,52.9235L27.1461,52.7987C25.4023,52.6737 23.597,52.5451 21.747,52.8417C21.7591,52.8417 21.3337,52.8885 21.3337,52.8885C21.1042,52.9237 20.8896,52.9516 20.6585,52.8965C20.573,52.8266 20.5029,52.7089 20.5029,52.5803C20.5029,52.5409 20.5109,52.5019 20.5268,52.4632C20.8585,51.7342 21.0222,51.0747 21.0222,50.4896C21.0222,50.017 20.9124,49.5956 20.6976,49.2212C20.2183,48.3043 19.6919,47.669 19.0437,47.2236C18.2476,46.4315 17.5698,45.7253 16.9648,45.0393C16.6142,44.9963 16.3994,44.9255 16.3714,44.9183L16.2938,44.8903L15.9431,45.3277C16.3994,45.7605 16.8248,46.1977 17.3393,46.6664C18.1269,47.0908 18.7634,47.8558 19.3284,48.3754C20.0116,49.1703 20.1755,50.0172 20.0304,50.9611C19.9417,52.0779 18.9189,52.5609 18.2251,53.2983C17.9404,53.8285 17.7645,54.4646 18.1509,54.9561C18.4005,55.6162 19.4572,55.4987 19.5861,56.0406C19.8786,57.2355 21.95,57.9253 22.3563,57.9525C22.7579,57.9806 23.1753,58.429 23.1753,58.429C23.9982,59.03 25.0788,58.8812 25.648,58.7955C26.2142,58.7094 27.2286,59.1701 27.8681,59.076C28.8158,58.6973 29.5968,58.8733 30.5835,58.7914C33.6884,58.8381 37.2155,58.7681 40.3902,59.1699C40.9794,59.1 41.6816,59.5564 42.2357,59.2755C42.3796,59.0369 42.2708,58.8381 42.2357,58.6394C40.718,56.2515 40.4923,53.5717 41.354,50.9732L41.9232,51.004C43.9874,51.2303 45.8601,50.9608 47.9511,49.7514C48.9957,49.1741 49.5463,47.8285 49.499,46.8488C49.4642,46.2167 49.2453,45.4678 49.3515,44.7972C49.3904,44.4969 49.5851,44.0405 49.8468,43.8996C49.9515,43.8378 50.3381,43.5759 50.4588,43.2402C50.658,42.6981 50.2331,42.4401 50.1083,42.3661C50.4437,42.2296 50.7636,41.5515 50.4588,41.02C50.2642,40.8131 50.0334,39.9861 50.0105,39.7176C49.9365,39.3272 49.9248,38.9294 50.2912,38.6802C51.114,38.2462 51.8908,38.1406 52.7488,37.7631C53.3381,37.5165 53.6427,36.904 53.6188,36.3535ZM19.6496,54.5427C19.5436,54.7345 19.5556,54.8588 19.5084,55.0848C19.4496,55.1906 19.157,55.05 19.0644,54.9918C18.7008,54.7964 18.7244,54.8983 18.6188,54.5585C18.5612,54.3316 18.565,54.0669 18.9435,53.8683C19.1771,53.7355 19.6496,53.5758 19.8016,53.8683C19.848,54.0669 19.6144,54.3204 19.6496,54.5427ZM21.6539,57.0865C21.1705,57.0982 20.8347,56.8329 20.6132,56.2672C20.3865,55.5414 20.3086,54.9061 20.4645,54.1567C20.515,54.0669 20.6201,54.0043 20.6908,54.036L21.362,53.8054C21.5877,53.7154 21.7758,53.6845 21.9893,53.7353L22.1221,53.8713C22.114,54.2616 22.0174,54.5503 22.0092,54.9129C21.9701,55.823 21.8923,56.0956 22.1532,56.9616C22.0562,57.1923 21.8613,57.0822 21.6539,57.0865ZM49.2884,23.2568C49.2228,23.3267 49.1408,23.4085 49.0318,23.3813C48.7822,23.206 48.875,22.9839 48.891,22.7734C48.9419,22.7225 48.9499,22.6955 49.0318,22.6955C49.1486,22.6715 49.2144,22.7611 49.2576,22.8242C49.3314,22.9601 49.3436,23.116 49.2884,23.2568ZM30.2092,34.2702C31.8549,31.317 33.8524,28.754 35.9945,26.1201L38.9945,22.7103C41.1316,20.4284 43.4962,18.0871 46.118,16.2774C46.4494,16.0894 46.5932,15.6999 46.9328,15.9727L47.2412,16.2574C47.448,16.4918 47.2684,17.1591 47.0574,17.3461C46.8855,17.487 46.722,17.6197 46.5584,17.7553C47.0693,18.2624 47.8103,19.2268 48.4148,19.8507C48.6805,20.1236 48.5986,20.409 49.0748,20.6268C49.3127,20.741 49.3822,21.0014 49.2386,21.2242C48.8169,21.7667 48.1148,21.6845 47.5611,21.8254C45.5008,22.2818 43.8389,22.8703 41.5611,23.975C39.7396,24.9429 38.2844,26.0115 36.9623,27.6694C36.4588,28.2937 35.8924,28.7659 35.4709,29.515C34.27,31.0563 33.318,32.5036 32.3625,34.0917C32.0226,34.5912 31.9141,34.8406 31.4336,35.2892C31.2041,35.5118 30.9973,35.0513 30.8523,34.8915C30.8377,34.8756 30.8254,34.8515 30.8135,34.8365C30.7668,34.8447 30.7168,34.8328 30.666,34.8018C30.5367,34.6336 30.1355,34.5629 30.2092,34.2702ZM48.3447,22.8662C48.314,23.4366 47.5529,23.9081 46.9166,24.0836C46.6482,24.1266 46.3984,24.1115 46.157,24.1115C46.0937,24.0688 46.0242,24.0137 46.032,23.9511C46.0752,23.6821 46.118,23.5223 46.1369,23.2806L46.2928,23.1629C46.8548,23.05 47.541,22.9291 48.1072,22.7812C48.189,22.7963 48.2939,22.7883 48.3447,22.8662ZM42.4348,24.3535L42.5369,24.2207C42.9998,24.0016 43.4256,23.8299 43.9367,23.686L44.5488,23.5265C44.7129,23.3777 44.9973,23.257 45.1653,23.4677C45.1733,24.2596 44.5812,25.2155 43.7031,25.5782C43.4258,25.6989 43.0592,25.7378 42.7317,25.8209C42.6498,25.7499 42.384,25.8986 42.3022,25.6989C42.3529,25.3013 42.5045,24.7078 42.4348,24.3535ZM36.1584,38.4265C35.9945,38.5193 34.5703,37.9768 34.7378,38.1256C34.3984,37.7633 34.9527,37.6413 33.6964,37.1698L33.3918,37.2007C33.3531,37.2359 33.2439,37.2948 33.131,37.1388C33.1195,36.9472 33.3689,36.9744 33.4466,36.7402C33.8951,35.7298 33.6455,34.9457 33.6025,33.9L33.9342,33.042C34.5662,32.2847 34.5625,32.1761 34.9915,31.7629C35.4172,31.1616 35.5072,31.1143 36.0802,30.6232C36.174,30.5412 36.3451,30.4794 36.4587,30.5722C36.7275,30.7829 36.7433,30.9237 36.8213,31.1925C36.9541,32.1914 36.3486,32.8784 35.6199,33.4209C35.1044,33.865 34.6092,34.5604 34.722,35.2426L34.7652,35.2853C35.0037,35.0902 35.3003,34.9738 35.4011,34.727C35.7956,33.8462 36.8562,33.4438 37.4496,32.6795C37.7111,32.2193 37.5502,31.4274 37.4496,30.8968C37.4496,30.9116 38.2293,30.5251 38.0188,30.6622C38.3893,30.8181 38.3422,31.0835 38.522,31.4231C38.8736,32.3048 38.8416,33.104 38.3033,33.8693L36.8215,35.7189C36.7984,36.6582 37.0551,37.8719 36.1584,38.4265ZM38.1125,29.4761C37.7572,29.6398 37.3906,29.675 36.9968,29.4912C36.8949,29.3584 36.5714,29.2454 36.7003,29.0468C36.9852,28.5821 37.4683,28.1998 37.765,27.7434L37.9058,27.6694C38.506,26.9442 39.4585,26.3311 40.3593,25.7846L40.9019,25.5471C41.0226,25.4301 41.2992,25.1843 41.4048,25.4381C41.4279,26.3859 41.0263,27.4006 40.1216,28.0709C39.5755,28.4772 39.3376,28.3993 38.8492,28.4302L38.5956,28.8829C38.538,29.1087 38.3392,29.3393 38.1125,29.4761ZM33.1232,34.8874L33.0996,35.5586C33.0375,36.1707 32.7568,36.8771 32.1796,37.2164C31.8361,37.1349 31.9605,36.721 31.875,36.4396C32.0976,35.8313 32.5218,35.324 32.8773,34.7818C32.9284,34.7466 32.9744,34.7236 33.0252,34.7466ZM24.9353,58.2061C24.6967,58.452 24.5607,58.3391 24.3179,58.3629C23.624,58.171 23.2185,57.8741 23.0238,57.0902C22.7659,55.998 22.7771,54.7964 23.0238,53.6766L23.1324,53.5908C23.6199,53.5367 24.354,53.4389 24.5564,53.5476C24.7556,53.6578 24.3419,55.6234 24.3419,55.6234C24.326,56.0138 24.5179,57.0127 24.6967,57.5279C24.7326,57.6058 25.1339,58.0034 24.9353,58.2061ZM29.9595,56.9924C29.8855,57.6958 29.0037,58.3119 28.5705,58.4368C28.138,58.5617 26.851,58.4985 26.4804,58.37C26.1058,58.2407 25.2,56.4741 25.3061,55.5572C25.3061,54.7964 25.5124,53.5947 25.8164,53.4969C26.1209,53.4037 26.9244,53.4508 26.9244,53.4508C27.2599,53.4266 27.5179,53.5086 27.8133,53.5436C28.0201,53.6256 27.8763,53.8873 27.9461,54.039C28.0439,54.4298 28.0668,54.8551 28.3095,55.2448C28.6482,55.9007 29.2683,56.2903 29.8855,56.5209C30.0213,56.6498 29.9436,56.8219 29.9595,56.9924ZM28.9687,54.0244C28.9687,53.8831 28.9771,53.8253 29.0816,53.7785L29.6628,53.7785C30.182,53.7974 30.8455,53.9648 31.3287,53.4658C31.6052,53.4775 31.6292,53.8054 31.7033,54.0633C31.7689,54.4177 31.7541,54.6446 31.7541,54.9639C31.637,55.2176 31.5084,55.6042 31.2468,55.7679C30.8295,55.9628 30.4076,55.9238 30.0064,55.7679C29.4012,55.4095 28.9607,54.8352 28.9687,54.0244ZM40.8748,51.2463C40.0981,53.9424 39.7275,55.3303 40.941,58.1049C40.9525,58.2098 41.0695,58.5576 40.941,58.6006C39.5986,58.3307 39.2437,58.2141 37.9835,58.1243C36.8213,57.9214 34.8859,58.245 33.5957,58.2342C32.5851,58.269 31.5584,58.3042 30.5017,58.4329C30.1852,58.269 30.4318,57.9134 30.4546,57.68C30.5717,57.3174 30.5836,57.1295 30.6185,56.7042C30.7822,56.5292 30.9849,56.6222 31.1838,56.5403C31.8628,56.4355 32.44,55.8344 32.6037,55.1989C32.8187,54.532 32.5851,53.7899 32.2763,53.1546C32.2187,52.967 31.9607,52.823 32.0656,52.6349C32.9004,51.0713 32.3115,49.4831 32.0309,47.9579C31.7378,46.873 31.2896,45.6744 31.1099,44.5321C31.1486,44.4153 30.997,44.1416 31.2548,44.1226L31.3484,44.1416C32.2416,45.2258 34.8009,47.5163 35.7595,48.2614C36.7163,49.0067 39.1927,50.451 40.8039,50.8363C40.9568,50.9647 40.933,51.0708 40.8748,51.2463Z" style="fill:white;fill-rule:nonzero;"/>
            </g>
            <g id="_48164760">
                <path d="M47.6695,27.8291C47.8336,28.0439 47.9431,28.2318 47.8103,28.4304C47.5058,28.4535 47.459,28.0681 47.2023,27.939C46.7769,27.7283 46.3982,27.9498 45.9771,28.056C44.9086,28.5165 44.0149,29.433 42.9771,29.9124C42.848,29.9124 42.7314,29.9006 42.6496,29.8076C42.8251,29.6318 43.1097,29.5966 43.3324,29.4521C44.4014,28.7501 45.4389,27.6463 46.7771,27.4435C47.1314,27.4196 47.4482,27.5487 47.6695,27.8291Z" style="fill:white;fill-rule:nonzero;"/>
            </g>
            <g id="_82784152">
                <path d="M47.5881,29.6441C47.5061,29.3825 47.518,28.9608 47.2027,28.9019C47.1317,29.0666 47.2027,29.2456 47.1317,29.3984C47.035,29.515 46.8704,29.6549 46.6834,29.6082C45.3883,29.6908 44.4244,30.8293 43.3211,31.4185C42.9424,31.6297 42.5209,31.7503 42.1196,31.8554C42.0844,31.9144 42.0955,31.9962 42.1543,32.0308C43.3788,32.1599 44.5881,32.2766 45.8018,32.4053L47.1518,32.2536C47.1908,32.0781 46.976,31.9259 47.011,31.7231C47.1669,31.1731 47.2137,30.5718 47.062,30.0535C47.1669,29.7728 47.5655,29.9826 47.5881,29.6441ZM46.6444,31.7304C46.4768,31.977 46.2151,31.7625 45.9856,31.7937C45.4553,31.7304 44.5614,31.8555 43.976,31.7814C43.8862,31.7304 43.8244,31.6415 43.8745,31.5595C43.9644,31.4109 44.21,31.4029 44.3627,31.29C45.002,30.8926 45.6731,30.5101 46.4032,30.3384C46.536,30.3183 46.6446,30.4282 46.6677,30.5219C46.7532,30.8602 46.6996,31.4029 46.6444,31.7304Z" style="fill:white;fill-rule:nonzero;"/>
            </g>
            <g id="_81751608">
                <path d="M48.275,35.7067C48.314,35.6435 48.365,35.5737 48.4228,35.5696C48.4967,35.5979 48.5397,35.6325 48.5518,35.7764C48.5397,36.0032 48.4857,36.2408 48.4228,36.4948C48.3529,36.7795 48.2788,37.0757 48.2788,37.3645C48.2788,37.4893 48.2939,37.6182 48.3291,37.7432C48.4967,37.9537 48.7625,38.0047 49.0748,37.8948C49.082,37.8907 49.613,37.5874 49.613,37.5874C50.0734,37.3138 50.5056,37.0531 51.3179,36.8464C51.3326,36.8423 51.3367,36.8496 51.3406,36.8533C51.357,36.8652 51.3607,36.8961 51.3607,36.9351C51.3607,37.0023 51.3406,37.0988 51.306,37.1742C51.275,37.1888 50.5298,37.5207 50.5298,37.5207C49.9449,37.7782 49.3356,38.0438 48.7659,38.3717C48.5984,38.4026 48.4427,38.3128 48.2937,38.2229L48.2549,38.204C48.0402,37.9073 47.9703,37.6226 47.9703,37.3339C47.9703,37.0761 48.0251,36.8186 48.0832,36.5541C48.134,36.3083 48.1929,36.0546 48.2039,35.7847C48.2242,35.7653 48.275,35.7067 48.275,35.7067Z" style="fill:white;fill-rule:nonzero;"/>
            </g>
            <g id="_111035472">
                <path d="M29.9477,35.4649C30.373,36.3347 29.925,37.1573 29.9477,38.0623C30.018,38.3203 30.525,38.3555 30.373,38.6638C30.2564,38.7458 30.0885,38.7685 29.9596,38.6759C29.726,38.523 29.643,38.4064 29.5851,38.1331C29.5221,37.3376 30.1586,36.4043 29.5973,35.6512C29.4334,35.4878 29.1947,35.3239 28.9609,35.3118C28.4535,35.4058 28.1961,35.9478 28.0201,36.3466C27.7515,37.4032 27.6775,38.5228 28.6094,39.3699C29.1518,39.6855 29.8076,40.029 29.8468,40.7122C29.9248,40.8291 30.0884,40.9418 30.2213,40.8763C30.3851,40.8641 30.408,40.3918 30.6418,40.6184L30.7127,40.7782C30.6539,40.969 30.5961,41.2974 30.2914,41.3082C30.1396,41.3434 29.9717,41.2615 29.8469,41.1685C29.5156,40.8289 29.7721,40.3097 29.2187,40.088C28.302,39.8032 27.7008,38.8393 27.6071,37.9334C27.5492,37.0638 27.5879,36.1117 28.3372,35.3477C28.6334,35.1249 29.0192,34.98 29.3977,35.1013C29.6084,35.1374 29.854,35.2849 29.9477,35.4649Z" style="fill:white;fill-rule:nonzero;"/>
            </g>
            <g id="_111045264">
                <path d="M18.4514,41.824C16.7786,42.6003 16.2671,44.5975 16.2441,44.6795L16.201,44.859L16.3721,44.9179C16.4388,44.9371 17.9916,45.4481 19.8914,44.5155C21.8027,43.58 22.1963,41.6832 22.2123,41.6012L22.251,41.4023L22.0485,41.3715C21.9703,41.3559 20.0981,41.063 18.4514,41.824ZM18.619,42.1866C19.8404,41.6172 21.2372,41.6834 21.7639,41.7342C21.6151,42.2173 21.1049,43.4781 19.7154,44.1612C18.3232,44.8434 17.125,44.6795 16.6884,44.5867C16.8525,44.1023 17.3908,42.7569 18.619,42.1866Z" style="fill:white;fill-rule:nonzero;"/>
            </g>
            <g id="_111057648">
                <path d="M20.1207,38.0666C18.4443,38.8238 17.8242,40.7981 17.8,40.8844L17.7423,41.071L17.9291,41.1299C17.9947,41.1487 19.5438,41.613 21.4473,40.7046C23.3668,39.7834 23.7762,37.9537 23.7922,37.876L23.8352,37.6769L23.6324,37.6409C23.5582,37.626 21.7717,37.3213 20.1207,38.0666ZM20.2846,38.4265C21.5022,37.8762 22.8325,37.9457 23.3435,38.0006C23.1838,38.4762 22.6644,39.6817 21.2766,40.3449C19.8949,41.0051 18.7049,40.8801 18.2524,40.7983C18.4443,40.3029 19.0564,38.9794 20.2846,38.4265Z" style="fill:white;fill-rule:nonzero;"/>
            </g>
            <g id="_82872168">
                <path d="M22.3022,34.4461C20.6203,35.1839 19.8914,37.1417 19.8642,37.2236L19.7893,37.4233L19.9963,37.4815C20.0629,37.5014 21.6078,37.9148 23.5115,37.0247C25.4416,36.1282 25.8633,34.3643 25.8832,34.2864L25.9262,34.0874L25.7275,34.0487C25.6564,34.0364 23.9598,33.7167 22.3022,34.4461ZM22.458,34.8095C23.6754,34.2743 24.9356,34.349 25.4309,34.4071C25.267,34.8673 24.733,36.0221 23.3477,36.6664C21.9788,37.3067 20.8004,37.2164 20.3278,37.1415C20.5547,36.6424 21.2372,35.3479 22.458,34.8095Z" style="fill:white;fill-rule:nonzero;"/>
            </g>
            <g id="_111066936">
                <path d="M24.4629,30.8688C22.7813,31.5904 21.9465,33.5251 21.9156,33.607L21.8215,33.8218L22.0484,33.8771C22.114,33.8929 23.6551,34.2635 25.5664,33.3963C27.5058,32.5194 27.9383,30.8177 27.9584,30.7438L28.0092,30.5448L27.8068,30.5021C27.7396,30.4858 26.1326,30.1581 24.4629,30.8688ZM24.6187,31.2352C25.8281,30.7206 27.0258,30.7983 27.5022,30.8565C27.3303,31.3058 26.7881,32.4096 25.4028,33.034C24.0494,33.6501 22.8791,33.5962 22.3918,33.5334C22.6528,33.0217 23.4016,31.7542 24.6187,31.2352Z" style="fill:white;fill-rule:nonzero;"/>
            </g>
            <g id="_111358368">
                <path d="M27.4592,27.2907C25.7735,27.9929 24.8338,29.9086 24.7948,29.9906L24.6859,30.2169L24.9316,30.2721C24.9934,30.2831 26.5303,30.6065 28.4501,29.7648C30.3924,28.9055 30.8457,27.2676 30.8645,27.1967L30.9156,27.0022L30.717,26.9513C30.6539,26.9399 29.1369,26.5966 27.4592,27.2907ZM27.6108,27.6572C28.8164,27.1577 29.9438,27.2397 30.4043,27.3028C30.2254,27.7432 29.675,28.7889 28.29,29.4012C26.9397,29.9943 25.7854,29.9718 25.286,29.9207C25.5867,29.4014 26.3973,28.1609 27.6108,27.6572Z" style="fill:white;fill-rule:nonzero;"/>
            </g>
            <g id="_111528120">
                <path d="M30.7636,23.8382C29.0738,24.5212 28.0242,26.4209 27.9815,26.5029L27.8535,26.7403L28.1182,26.7913C28.1849,26.8034 29.7182,27.0802 31.6375,26.2529C33.5918,25.418 34.0592,23.8462 34.0793,23.7801L34.1342,23.5802L33.9348,23.5335C33.8764,23.5184 32.4444,23.1587 30.7636,23.8382ZM30.9116,24.2048C32.1047,23.7255 33.1701,23.811 33.6149,23.8772C33.4281,24.3025 32.862,25.3015 31.4809,25.8907C30.1467,26.4638 29.0041,26.4679 28.4889,26.4328C28.8244,25.9055 29.7019,24.697 30.9116,24.2048Z" style="fill:white;fill-rule:nonzero;"/>
            </g>
            <g id="_114230976">
                <path d="M34.2898,20.577C32.5973,21.236 31.442,23.1197 31.3948,23.2017L31.243,23.4515L31.5317,23.4983C31.5986,23.5063 33.1275,23.7399 35.0512,22.937C37.0121,22.1209 37.4928,20.6117 37.5116,20.5489L37.5748,20.3541L37.3799,20.299C37.3248,20.2846 35.9787,19.9128 34.2898,20.577ZM34.4334,20.9437C35.6162,20.483 36.6228,20.569 37.051,20.6348C36.8524,21.0486 36.2791,21.9966 34.8981,22.5707C33.5838,23.1199 32.4485,23.1558 31.918,23.132C32.2965,22.5974 33.2325,21.415 34.4334,20.9437Z" style="fill:white;fill-rule:nonzero;"/>
            </g>
            <g id="_48808752">
                <path d="M37.957,17.5648C36.2592,18.2079 35.0002,20.0735 34.9492,20.1517L34.7691,20.4202L35.0898,20.4595C35.1518,20.4675 36.6766,20.6514 38.6082,19.8701C40.5746,19.0752 41.0741,17.6309 41.0928,17.569L41.1561,17.381L40.9643,17.3192C40.9138,17.3031 39.6578,16.9166 37.957,17.5648ZM38.0965,17.9312C39.2713,17.487 40.2149,17.5767 40.6254,17.6466C40.4187,18.0482 39.8293,18.9502 38.4601,19.5035C37.1529,20.0308 36.0334,20.0927 35.491,20.0845C35.9086,19.5424 36.8994,18.3876 38.0965,17.9312Z" style="fill:white;fill-rule:nonzero;"/>
            </g>
            <g id="_48137184">
                <path d="M41.6818,14.8649C39.9812,15.4935 38.6201,17.342 38.5611,17.4199L38.3543,17.6978L38.7019,17.7328C38.7637,17.7407 40.2855,17.8766 42.2201,17.1163C44.1984,16.3395 44.7084,14.9619 44.7285,14.9041L44.7947,14.7162L44.6076,14.6543C44.5611,14.6342 43.3904,14.2368 41.6818,14.8649ZM41.8185,15.2356C42.9812,14.8101 43.867,14.8958 44.2565,14.9699C44.0416,15.3563 43.4453,16.2102 42.0763,16.7486C40.7851,17.2558 39.6807,17.342 39.1232,17.3461C39.5796,16.7994 40.6284,15.6761 41.8185,15.2356Z" style="fill:white;fill-rule:nonzero;"/>
            </g>
            <g id="_82940240">
                <path d="M15.7758,38.0399C15.7249,38.1018 14.5626,39.6117 14.442,41.4297C14.3208,43.283 15.8339,44.6953 15.9008,44.7547L16.0337,44.8791L16.1694,44.7547C16.2204,44.7115 17.4177,43.5839 17.5076,41.4615C17.6056,39.3235 16.1198,38.0625 16.0567,38.0088L15.9008,37.8795ZM14.8309,41.6361C14.8309,41.5787 14.8349,41.5194 14.8391,41.4576C14.9248,40.0951 15.662,38.8973 15.9586,38.465C16.3021,38.8196 17.1177,39.8106 17.1177,41.2737C17.1177,41.3285 17.1177,41.3865 17.1141,41.4457C17.0432,43.0066 16.326,43.9813 16.0293,44.3208C15.6938,43.9622 14.8309,42.9166 14.8309,41.6361Z" style="fill:white;fill-rule:nonzero;"/>
            </g>
            <g id="_82893400">
                <path d="M18.1355,33.9665C18.0965,34.0098 17.1488,35.0554 16.7466,36.5535C16.6925,36.7599 16.6495,36.9742 16.6217,37.2005C16.4041,38.9956 17.6992,40.4665 17.7574,40.5286L17.8821,40.6737L18.0311,40.5487C18.0852,40.5056 19.3061,39.4442 19.5561,37.3803C19.8055,35.297 18.4756,34.0098 18.4165,33.9589L18.2727,33.8181ZM16.9933,37.6061C16.9933,37.4893 17.0001,37.3723 17.0159,37.2517C17.0391,37.045 17.0783,36.8462 17.1289,36.6582C17.4175,35.5817 18.0188,34.7428 18.2876,34.403C18.573,34.7387 19.1892,35.6206 19.1892,36.8771C19.1892,37.021 19.1813,37.1776 19.1612,37.3333C18.9824,38.8352 18.2332,39.7674 17.9211,40.1031C17.6401,39.7326 16.9933,38.7579 16.9933,37.6061Z" style="fill:white;fill-rule:nonzero;"/>
            </g>
            <g id="_82889776">
                <path d="M20.784,30.1472C20.7408,30.1862 19.7463,31.1102 19.2432,32.6012C19.1813,32.7918 19.126,32.9951 19.083,33.2287C18.7717,34.9656 19.8524,36.4906 19.8949,36.5573L20.0162,36.7242L20.1797,36.5962C20.2306,36.5535 21.4832,35.5546 21.8844,33.5532C22.29,31.5277 21.1127,30.213 21.0619,30.1579L20.9289,30.0141ZM19.4272,33.8689C19.4272,33.6821 19.443,33.4861 19.4779,33.2955C19.5131,33.085 19.5596,32.9012 19.6178,32.7294C19.9771,31.6685 20.6133,30.9034 20.9019,30.5957C21.1276,30.9112 21.5724,31.6765 21.5724,32.7262C21.5724,32.9641 21.5492,33.2136 21.4942,33.4783C21.206,34.9185 20.434,35.8045 20.0985,36.1362C19.875,35.7612 19.4272,34.8794 19.4272,33.8689Z" style="fill:white;fill-rule:nonzero;"/>
            </g>
            <g id="_82869456">
                <path d="M23.694,26.5767C23.648,26.6117 22.6103,27.4196 22.0012,28.8989C21.9314,29.0694 21.8688,29.2695 21.8149,29.4992C21.4043,31.1771 22.259,32.7609 22.298,32.827L22.4027,33.0219L22.5867,32.8903C22.6414,32.8539 23.9168,31.9144 24.4748,29.9798C25.0363,28.0129 24.0144,26.6668 23.9719,26.6117L23.851,26.456ZM22.1033,30.436C22.1033,30.1624 22.1303,29.8734 22.1961,29.593C22.2469,29.3825 22.3058,29.2024 22.3678,29.0468C22.7972,28.009 23.4645,27.3151 23.773,27.0333C23.941,27.3218 24.2404,27.9582 24.2404,28.8129C24.2404,29.1366 24.2014,29.4912 24.0928,29.8697C23.6942,31.2468 22.8994,32.0899 22.5399,32.4138C22.384,32.0588 22.1033,31.302 22.1033,30.436Z" style="fill:white;fill-rule:nonzero;"/>
            </g>
            <g id="_82898896">
                <path d="M26.8469,23.2527C26.8,23.2806 25.7195,23.9707 25.0053,25.4381C24.9234,25.6018 24.8494,25.7846 24.779,26.0193C24.2756,27.6385 24.9113,29.2732 24.9424,29.3432L25.0325,29.566L25.2352,29.4332C25.2901,29.3943 26.5892,28.5204 27.2997,26.6478C28.0204,24.7391 27.1545,23.3701 27.1157,23.3118L27.0108,23.148ZM24.9852,27.3416C24.9852,26.955 25.0325,26.5418 25.1572,26.1365C25.2244,25.9254 25.2862,25.7579 25.3598,25.6128C25.8592,24.5871 26.5625,23.9629 26.882,23.7132C27.0027,23.9629 27.1895,24.4586 27.1895,25.1255C27.1895,25.5309 27.1193,25.9956 26.9289,26.5029C26.4334,27.8181 25.6096,28.6173 25.2279,28.9419C25.1303,28.6173 24.9852,28.0281 24.9852,27.3416Z" style="fill:white;fill-rule:nonzero;"/>
            </g>
            <g id="_117735336">
                <path d="M30.2213,20.1706C30.1744,20.1946 29.0549,20.7639 28.2242,22.2192C28.1381,22.3789 28.0562,22.5547 27.9707,22.7775C27.3692,24.3373 27.7906,26.0237 27.8105,26.0934L27.8766,26.3507L28.1035,26.2101C28.157,26.1791 29.4834,25.3632 30.3461,23.5532C31.2242,21.7077 30.5141,20.3155 30.4821,20.2566L30.3922,20.0845ZM28.0482,24.6419C28.0482,24.1186 28.1143,23.5025 28.3371,22.9172C28.419,22.7145 28.4889,22.5547 28.5707,22.4141C29.1436,21.4109 29.8738,20.8539 30.2132,20.6348C30.2873,20.8418 30.3893,21.2015 30.3893,21.6968C30.3893,22.1642 30.2951,22.7412 29.9868,23.3857C29.3904,24.6421 28.5436,25.395 28.1381,25.7028C28.0949,25.461 28.0482,25.0866 28.0482,24.6419Z" style="fill:white;fill-rule:nonzero;"/>
            </g>
            <g id="_47326760">
                <path d="M33.8025,17.3268C33.7515,17.3461 32.5973,17.7982 31.6526,19.2384C31.5556,19.3906 31.4617,19.5661 31.3639,19.7729C30.674,21.2749 30.8766,23.0109 30.8846,23.0808L30.9198,23.3695L31.1772,23.2296C31.2352,23.1987 32.5813,22.4496 33.5963,20.7019C34.6338,18.9141 34.0793,17.4977 34.0556,17.4395L33.9817,17.2556ZM31.2471,22.3988C31.2471,21.7823 31.3248,20.8027 31.7234,19.9368C31.8121,19.7449 31.898,19.589 31.9836,19.4562C32.6318,18.4696 33.3918,17.9821 33.7433,17.7902C33.782,17.9511 33.8215,18.1847 33.8215,18.4966C33.8215,19.0158 33.7044,19.7218 33.256,20.5018C32.5572,21.7004 31.6869,22.4066 31.2548,22.7062C31.251,22.6203 31.2471,22.5197 31.2471,22.3988Z" style="fill:white;fill-rule:nonzero;"/>
            </g>
            <g id="_81988928">
                <path d="M37.5748,14.7202C37.5237,14.7319 36.334,15.0716 35.2725,16.4958C35.1639,16.6397 35.054,16.8077 34.9529,16.9984C34.1652,18.4427 34.1529,20.2293 34.1529,20.3073L34.1572,20.6229L34.4375,20.4828C34.5006,20.4519 35.8736,19.7606 37.0398,18.0761C38.2252,16.3551 37.8316,14.9158 37.8158,14.8568L37.7607,14.6661ZM35.3006,17.1902C35.3934,17.0143 35.4912,16.8667 35.5893,16.7296C36.3143,15.7618 37.1061,15.3363 37.4727,15.1803C37.4807,15.2743 37.4928,15.3833 37.4928,15.528C37.4928,16.0584 37.3637,16.9093 36.7127,17.8535C35.9207,18.993 35.027,19.656 34.5664,19.9489C34.6094,19.3676 34.758,18.1769 35.3006,17.1902Z" style="fill:white;fill-rule:nonzero;"/>
            </g>
            <g id="_82907120">
                <path d="M41.5024,12.3441C41.4519,12.352 40.2348,12.5788 39.0485,13.9751C37.875,15.3684 37.5973,17.6624 37.5865,17.7595L37.5476,18.103L37.8631,17.9621C37.922,17.9355 39.3223,17.307 40.6364,15.68C41.9787,14.0262 41.7408,12.5631 41.733,12.5041L41.698,12.3094ZM39.3531,14.2329C40.157,13.285 40.9756,12.9215 41.3543,12.7965C41.3584,12.8045 41.3584,12.8087 41.3584,12.8204C41.3584,13.2809 41.2375,14.3107 40.3287,15.434C39.4471,16.5227 38.522,17.1392 38.0427,17.4196C38.1717,16.7139 38.5301,15.2046 39.3531,14.2329Z" style="fill:white;fill-rule:nonzero;"/>
            </g>
            <g id="_82162616">
                <path d="M3.87785,32.0001C3.87785,41.5865 9.06165,50.8052 17.4096,56.0687L17.7572,56.2833L18.0068,55.9589C18.0766,55.8687 18.1045,55.7798 18.1045,55.7011C18.1045,55.4941 17.9291,55.3346 17.8309,55.2416L17.3479,54.7774C15.6233,52.8228 15.163,50.9688 15.163,49.5446C15.163,47.9686 15.7291,46.9156 15.7759,46.8367L15.9279,46.5563L15.717,46.3184C12.1866,42.3825 10.3263,37.4343 10.3263,31.9999C10.3263,20.0454 20.0475,10.3235 32.0004,10.3235C35.3237,10.3235 38.5104,11.0525 41.4754,12.4968L41.784,12.6486L46.1372,7.67773L45.6576,7.40896C41.5026,5.09565 36.7787,3.8746 32.0002,3.8746C16.4898,3.8746 3.87785,16.4919 3.87785,32.0001ZM4.76668,32.0001C4.76668,16.9835 16.9852,4.76741 32.0002,4.76741C36.4389,4.76741 40.8283,5.86826 44.7252,7.9316C44.1516,8.58399 41.9004,11.1588 41.5493,11.5522C38.5534,10.1479 35.3436,9.42986 32.0004,9.42986C19.5561,9.42986 9.42839,19.5545 9.42839,32.0001C9.42839,37.5522 11.3091,42.62 14.8631,46.6852C14.6564,47.1575 14.2928,48.1914 14.2928,49.5606C14.2928,50.6923 14.5544,52.0496 15.3546,53.494C8.76537,48.2461 4.76668,40.2629 4.76668,32.0001Z" style="fill:white;fill-rule:nonzero;"/>
            </g>
            <g id="_49059128">
                <path d="M41.8656,11.697C38.776,10.1908 35.4601,9.42968 32,9.42968C19.5556,9.42968 9.42791,19.5543 9.42791,31.9999C9.42791,37.6532 11.3713,42.8147 15.0496,46.9156L15.4361,47.3441L17.1528,44.7547L17.0629,44.6485C16.9071,44.6299 16.7822,44.6053 16.6884,44.5867C16.7111,44.5157 16.7461,44.4227 16.7851,44.3208C16.6534,44.1612 16.5167,43.9973 16.3876,43.8335C16.251,44.055 16.1193,44.2151 16.0291,44.3208C15.6936,43.9621 14.8307,42.9166 14.8307,41.6361C14.8307,41.5971 14.8349,41.5541 14.8349,41.5154C13.2319,38.6908 12.4161,35.5038 12.4161,32.0001C12.4161,21.2015 21.2011,12.415 32,12.415C34.6482,12.415 37.2037,12.9333 39.6103,13.9521C39.8683,13.6826 40.1218,13.4716 40.3595,13.3082C37.726,12.1292 34.9179,11.5211 32,11.5211C20.7061,11.5211 11.5193,20.7088 11.5193,32.0001C11.5193,36.8961 13.0484,41.1998 16.04,44.8125C15.8694,45.074 15.6228,45.4445 15.3462,45.8661C12.0696,42.0038 10.3258,37.2316 10.3258,32.0001C10.3258,20.0456 20.0471,10.3237 32,10.3237C35.1755,10.3237 38.2215,10.9987 41.074,12.3172C40.9527,12.5746 40.8389,12.8288 40.7184,13.0823C40.9836,12.9333 41.2025,12.8434 41.3543,12.7965C41.3586,12.8045 41.3586,12.8087 41.3586,12.8204C41.3586,13.1559 41.2924,13.7924 40.906,14.5485L41.0066,14.5994L42.2588,11.8836Z" style="fill:white;fill-rule:nonzero;"/>
            </g>
            <g id="_122255456">
                <path d="M41.6629,7.26817L39.5047,10.0001C39.7044,10.0657 39.8994,10.1356 40.094,10.2107L42.2359,7.50308C42.0484,7.4211 41.8578,7.34335 41.6629,7.26817Z" style="fill:white;fill-rule:nonzero;"/>
            </g>
            <g id="_111525640">
                <path d="M37.442,6.01195L36.1817,9.12996C36.3812,9.16513 36.5799,9.20401 36.7746,9.2471L38.0311,6.14075C37.832,6.09458 37.6366,6.05457 37.442,6.01195Z" style="fill:white;fill-rule:nonzero;"/>
            </g>
            <g id="_81748496">
                <path d="M32.4176,5.45061L32.109,8.75557C32.3076,8.75557 32.5076,8.75865 32.7022,8.76238L33.0137,5.46648C32.8151,5.46227 32.6162,5.45448 32.4176,5.45061Z" style="fill:white;fill-rule:nonzero;"/>
            </g>
            <g id="_48970056">
                <path d="M27.5209,5.825L28.1492,9.07116C28.3449,9.04023 28.5397,9.00813 28.7383,8.98125L28.1102,5.73103C27.9116,5.75907 27.717,5.79001 27.5209,5.825Z" style="fill:white;fill-rule:nonzero;"/>
            </g>
            <g id="_47284000">
                <path d="M22.7744,7.09644L24.2604,10.0779C24.4471,10.011 24.635,9.94924 24.8258,9.88607L23.3356,6.89782C23.149,6.96473 22.9611,7.03035 22.7744,7.09644Z" style="fill:white;fill-rule:nonzero;"/>
            </g>
            <g id="_48122368">
                <path d="M18.2683,9.27805L20.4843,11.8099C20.659,11.709 20.835,11.611 21.0146,11.5131L18.7868,8.96927C18.6123,9.07116 18.4402,9.17598 18.2683,9.27805Z" style="fill:white;fill-rule:nonzero;"/>
            </g>
            <g id="_82943656">
                <path d="M14.1761,12.333L16.9735,14.2757C17.129,14.1428 17.2889,14.014 17.4498,13.8812L14.6323,11.9266C14.4807,12.0594 14.3247,12.1965 14.1761,12.333Z" style="fill:white;fill-rule:nonzero;"/>
            </g>
            <g id="_111743952">
                <path d="M10.6927,16.1676L13.9074,17.4198C14.0391,17.2558 14.1721,17.0962 14.3047,16.9404L11.0672,15.6761C10.9425,15.8399 10.8175,16.0038 10.6927,16.1676Z" style="fill:white;fill-rule:nonzero;"/>
            </g>
            <g id="_81670368">
                <path d="M8.00516,20.6348L11.4644,21.1184C11.5624,20.9277 11.664,20.744 11.769,20.5612L8.27764,20.0735C8.184,20.2604 8.09004,20.4483 8.00516,20.6348Z" style="fill:white;fill-rule:nonzero;"/>
            </g>
            <g id="_82778632">
                <path d="M6.24176,25.535L9.76793,25.1963C9.83467,24.9925 9.90076,24.7857 9.96684,24.583L6.40537,24.9226C6.3464,25.1255 6.29278,25.3282 6.24176,25.535Z" style="fill:white;fill-rule:nonzero;"/>
            </g>
            <g id="_49035160">
                <path d="M5.47668,30.6655L8.88978,29.4803C8.91392,29.2613 8.94064,29.0428 8.96786,28.8242L5.5154,30.0255C5.5005,30.2361 5.48884,30.4511 5.47668,30.6655Z" style="fill:white;fill-rule:nonzero;"/>
            </g>
            <g id="_82868520">
                <path d="M5.74235,35.8503L8.82418,33.8259C8.80782,33.5999 8.79324,33.3732 8.78108,33.1439L5.64823,35.1992C5.67932,35.4177 5.70736,35.6325 5.74235,35.8503Z" style="fill:white;fill-rule:nonzero;"/>
            </g>
            <g id="_82947392">
                <path d="M7.05655,40.9231L9.55733,38.1685C9.49531,37.9379 9.44023,37.7042 9.38548,37.4733L6.83074,40.2869C6.9046,40.5017 6.97865,40.7124 7.05655,40.9231Z" style="fill:white;fill-rule:nonzero;"/>
            </g>
            <g id="_82847744">
                <path d="M9.40928,45.7683L11.18,42.4015C11.0713,42.1826 10.9584,41.965 10.8565,41.7422L9.05388,45.1723C9.17067,45.3708 9.2886,45.5734 9.40928,45.7683Z" style="fill:white;fill-rule:nonzero;"/>
            </g>
            <g id="_47020472">
                <path d="M12.4244,49.8061L13.3727,45.9091C13.216,45.7022 13.0602,45.4915 12.9126,45.2808L11.9491,49.264C12.1046,49.4477 12.2647,49.6264 12.4244,49.8061Z" style="fill:white;fill-rule:nonzero;"/>
            </g>
            <g id="_48970168">
                <path d="M41.2217,14.798C41.3036,14.8489 41.3856,14.9039 41.4631,14.9589C41.5383,14.9268 41.6084,14.8919 41.6821,14.8647C41.7678,14.8338 41.854,14.8059 41.9401,14.7792C41.7563,14.6583 41.5852,14.5213 41.4206,14.3768C41.3664,14.5135 41.2956,14.6543 41.2217,14.798Z" style="fill:white;fill-rule:nonzero;"/>
            </g>
        </g>
    </g>
</svg>
