<?xml version="1.0" standalone="no"?>
<!DOCTYPE svg PUBLIC "-//W3C//DTD SVG 1.1//EN" "http://www.w3.org/Graphics/SVG/1.1/DTD/svg11.dtd">
<svg width="36px" height="36px" version="1.1" xmlns="http://www.w3.org/2000/svg" xmlns:xlink="http://www.w3.org/1999/xlink" xml:space="preserve" style="fill-rule:evenodd;clip-rule:evenodd;stroke-linejoin:round;stroke-miterlimit:1.41421;">
    <g>
        <g id="_49116176">
            <path d="M0.502155,17.9979C0.502155,8.35158 8.35158,0.502429 18.0001,0.502429C27.6463,0.502429 35.4949,8.35167 35.4949,17.9979C35.4949,27.6464 27.6463,35.4935 18.0001,35.4935C8.35149,35.4934 0.502155,27.6463 0.502155,17.9979ZM3.55271e-15,17.9979C3.55271e-15,27.923 8.07512,35.9957 18.0001,35.9957C27.9249,35.9957 36,27.923 36,17.9979C36,8.07312 27.9249,-1.9984e-15 18.0001,-1.9984e-15C8.07512,-3.10862e-15 3.55271e-15,8.07303 3.55271e-15,17.9979Z" style="fill:white;fill-rule:nonzero;"/>
        </g>
        <g id="_48873840">
            <path d="M29.8252,20.9252C29.3336,21.3813 28.6398,21.388 28.078,21.7587C27.8214,22.0154 27.8854,22.3099 27.9906,22.6344C28.1988,23.0445 28.1196,23.0031 27.8304,23.0996C27.1524,23.3253 27.1591,24.0675 26.3423,23.9444C26.2962,23.9574 26.1058,23.8612 26.2198,23.9994C26.3075,24.1024 26.3423,24.041 26.5158,24.0608C26.8058,24.0758 26.9154,23.9551 27.1192,23.8168C27.409,23.5714 27.3737,23.4792 27.7338,23.3079C27.8192,23.286 28.0298,23.2249 28.1483,23.2665C28.2274,23.339 28.2299,23.3411 28.2427,23.4068C28.1966,23.6062 27.9072,23.771 27.7949,23.8388C27.9488,23.9511 28.2342,24.14 28.1858,24.2976C28.1195,24.4028 28.124,24.4208 28.01,24.4752C27.8478,24.5543 27.5253,24.541 27.2202,24.315C27.1741,24.3303 27.1236,24.2276 26.9945,24.3506C27.2904,24.6557 27.7051,24.587 27.7669,24.6488C27.8303,24.7099 27.545,25.0785 27.5342,25.1577C27.3342,25.6868 27.5781,26.1738 27.4724,26.7243C27.4067,27.1524 27.2768,27.3565 26.9023,27.6287C26.2108,28.1069 25.7259,28.2453 24.9534,28.3704C22.9215,28.5085 21.6399,27.8108 20.1788,26.7177C18.7149,25.625 18.1552,25.046 17.6992,24.4314C17.6924,24.1792 17.8767,23.9881 17.7189,23.7163C17.5869,23.7624 17.6002,23.9353 17.521,24.0341C17.407,24.1941 17.1373,24.3105 16.9442,24.2909C16.3431,24.087 16.31,23.3803 15.9325,22.9762C15.1273,22.1819 14.9011,21.0366 15.3314,20.0777C15.4825,19.7816 15.7549,19.4962 16.0599,19.3906C16.4352,19.3317 16.8783,19.3317 17.1239,19.6958C17.4138,19.9726 17.5936,20.4221 17.6659,20.8192C17.7845,21.0102 17.6397,21.2298 17.8373,21.3877C18.1816,21.4207 18.4776,21.5062 18.8091,21.2955C19.0551,21.3286 19.0878,21.6007 19.2742,21.7191L19.6032,21.9167C19.9544,22.0611 20.4066,22.0611 20.7025,21.8044C21.2582,21.2366 21.1374,20.6507 21.3284,20.0227C21.8592,19.5535 22.2104,18.8817 22.2035,18.2255C22.1711,17.8223 22.0261,17.4049 21.7868,17.0031C21.8261,16.7645 21.9602,16.5863 22.0367,16.3734C22.1047,16.3341 22.1906,16.3341 22.2629,16.3212C22.853,16.1959 23.3888,15.6607 23.6191,15.0965L23.6719,15.0437C24.3476,14.9979 25.188,14.7583 25.5763,14.0524C25.6577,13.7474 25.9998,13.9732 26.2126,13.9006C26.5706,13.8811 26.9277,13.6811 27.1979,13.4508C27.2764,13.4244 27.3362,13.5102 27.3843,13.5496C27.5423,14.0781 27.832,14.5876 27.999,15.1253C28.2027,15.5269 28.2775,15.9106 28.2027,16.3212C28.2883,16.9488 28.6485,17.539 28.8983,18.1732C29.1488,18.8423 29.5392,19.5158 29.8246,20.205C29.8774,20.4818 29.9958,20.7016 29.8252,20.9252ZM29.9634,19.7708C29.4869,18.6715 28.9517,17.7281 28.5613,16.6222C28.2827,16.225 28.4428,15.8038 28.4074,15.3778C28.2299,14.7173 27.9511,14.2082 27.6879,13.5651C27.6132,13.3809 27.8193,13.3287 27.8917,13.1965C28.0102,12.8719 27.9272,12.508 27.78,12.1961C27.721,12.018 27.9333,11.8934 27.8917,11.7091C27.8855,11.4238 27.635,11.2306 27.4357,11.0794C27.1367,10.649 26.9985,10.4233 26.6278,10.0346L26.6278,9.95991C26.8142,9.79535 26.966,9.51042 26.9616,9.26677C26.8869,8.99032 26.8278,8.73145 26.5619,8.5381C26.1384,8.3011 25.7087,8.67186 25.3727,8.86293C25.2785,8.92854 25.2324,8.99497 25.1004,8.98376C25.015,8.95278 24.9273,8.92034 24.8352,8.88717C24.7493,8.98585 24.6421,9.09164 24.5127,9.19442L24.9229,9.36135C24.9362,9.37265 24.9425,9.38085 24.9425,9.39662C24.9425,9.40272 24.938,9.41639 24.938,9.42696C24.9099,9.4512 23.986,10.2612 23.986,10.2612C23.9837,10.2629 22.3224,11.9021 22.3224,11.9021C22.3224,11.9042 21.8484,12.3875 21.8484,12.3875C21.8446,12.3896 20.3699,14.0901 20.3699,14.0901C19.5974,14.9856 18.456,16.4533 17.7718,17.5284C17.414,18.0199 17.0583,18.5666 16.7269,19.0844C16.6921,19.1414 16.6242,19.1367 16.5163,19.1239C16.4439,19.1148 16.3674,19.1087 16.3012,19.1306L16.3033,19.1306L16.2882,19.1346C16.2927,19.1328 16.2972,19.1328 16.3012,19.1306C15.9259,19.1722 15.6517,19.2975 15.3602,19.5603C14.9827,20.0081 14.7918,20.5479 14.7918,21.1316C14.7918,21.5333 14.8817,21.9567 15.0658,22.3802C14.9889,22.6084 14.8115,22.8084 14.6513,22.9859L14.5614,23.0846L14.4474,23.1986C14.375,23.2668 14.2891,23.3477 14.2299,23.4245L14.2234,23.4314L14.2187,23.4419C14.2126,23.4662 14.2081,23.5122 14.2829,23.5474L14.3002,23.5583L14.3199,23.5542C14.6687,23.4705 14.8883,23.2071 15.1012,22.9527C15.1012,22.9527 15.235,22.7992 15.2545,22.775C15.2876,22.7706 15.3142,22.7881 15.358,22.8279C15.3822,22.8477 15.4102,22.8651 15.4412,22.8801C15.4412,22.8893 15.4412,22.8981 15.4412,22.8981C15.4412,22.8981 15.4367,23.0121 15.4367,23.0384C14.6098,23.8548 13.9356,24.3153 13.0538,24.8333L12.9066,24.9187L13.078,24.9367C13.4207,24.9716 13.7476,24.7782 14.0633,24.5917L14.443,24.3833C14.7918,24.2036 15.1164,23.9296 15.4327,23.6661C15.4327,23.6661 15.7153,23.4289 15.746,23.4026C15.777,23.4094 15.8095,23.4462 15.8337,23.4772C15.8337,23.4772 15.8539,23.4968 15.8668,23.5104C15.8712,23.5188 16.1303,24.0323 16.1456,24.063C16.0866,24.3045 16.0624,24.5479 16.0624,24.7916C16.0624,25.3203 16.1764,25.8494 16.2883,26.3651C16.4,26.874 16.5141,27.3982 16.5141,27.9139C16.5141,27.9492 16.5141,27.9818 16.512,28.015C16.512,28.1751 16.339,28.3856 16.1918,28.4535C15.8625,28.5086 15.4608,28.5131 15.0395,28.5176C14.52,28.5215 13.9823,28.526 13.5694,28.6378C13.4381,28.6536 13.2841,28.6973 13.1352,28.7388C12.9902,28.7781 12.8386,28.8225 12.698,28.8401L12.6851,28.8422L12.6677,28.8551L12.6171,28.8906C12.5711,28.9187 12.5117,28.9563 12.4987,29.0242C12.4987,29.031 12.4964,29.0373 12.4964,29.044C12.4964,29.0811 12.5137,29.1276 12.5447,29.1556C12.5734,29.1867 12.6082,29.1995 12.6457,29.198C12.7704,29.198 12.9109,29.145 13.0468,29.0969C13.1412,29.0615 13.24,29.0267 13.3299,29.0109C14.1928,28.8642 15.1359,28.8928 15.7768,28.9451C16.0926,28.9407 16.6104,28.93 16.797,28.4801C16.8649,28.2979 16.8891,28.1289 16.8891,27.9664C16.8891,27.7868 16.8609,27.6154 16.8325,27.438L16.7751,27.0009C16.7381,26.7357 16.6806,26.4701 16.6261,26.2111C16.5294,25.7572 16.4307,25.2874 16.4307,24.8113C16.4307,24.7146 16.4352,24.6179 16.4437,24.5212C16.4527,24.5083 16.4632,24.4949 16.4768,24.4932C16.5031,24.4887 16.5514,24.5281 16.5908,24.559C16.6344,24.5914 16.6806,24.6269 16.7311,24.64C16.7884,24.6813 16.8519,24.695 16.911,24.7017C16.9946,24.7123 17.0386,24.7236 17.0649,24.7871C17.0997,25.2039 17.2448,25.6363 17.3851,26.0555C17.4818,26.3425 17.5806,26.6392 17.6441,26.9307C17.7581,27.438 17.8722,27.9536 17.8722,28.4627C17.8722,28.7655 17.8328,29.066 17.7255,29.3605C17.506,29.7637 17.0212,29.7637 16.5561,29.7659L16.4155,29.7659L15.2697,29.6957C14.2888,29.6254 13.2733,29.5531 12.2327,29.7199C12.2395,29.7199 12.0002,29.7462 12.0002,29.7462C11.8711,29.766 11.7504,29.7817 11.6204,29.7507C11.5723,29.7114 11.5329,29.6452 11.5329,29.5729C11.5329,29.5507 11.5374,29.5288 11.5463,29.507C11.7329,29.097 11.825,28.7261 11.825,28.397C11.825,28.1312 11.7632,27.8942 11.6424,27.6836C11.3728,27.1679 11.0767,26.8106 10.7121,26.5601C10.2643,26.1146 9.88301,25.7174 9.54268,25.3316C9.3455,25.3074 9.22468,25.2676 9.20891,25.2635L9.16527,25.2478L8.96799,25.4938C9.22468,25.7372 9.46395,25.9831 9.75335,26.2467C10.1964,26.4854 10.5544,26.9157 10.8722,27.2079C11.2565,27.655 11.3487,28.1313 11.2671,28.6622C11.2172,29.2903 10.6419,29.562 10.2516,29.9767C10.0915,30.2749 9.99253,30.6327 10.2099,30.9091C10.3503,31.2804 10.9447,31.2143 11.0172,31.5191C11.1817,32.1911 12.3469,32.5791 12.5754,32.5944C12.8013,32.6102 13.0361,32.8624 13.0361,32.8624C13.499,33.2004 14.1068,33.1167 14.427,33.0685C14.7455,33.0201 15.3161,33.2792 15.6758,33.2263C16.2089,33.0133 16.6482,33.1123 17.2032,33.0662C18.9497,33.0925 20.9337,33.0531 22.7195,33.2791C23.0509,33.2398 23.4459,33.4965 23.7576,33.3385C23.8385,33.2043 23.7773,33.0925 23.7576,32.9807C22.9039,31.6377 22.7769,30.1305 23.2616,28.669L23.5818,28.6863C24.7429,28.8136 25.7963,28.662 26.9725,27.9818C27.5601,27.6571 27.8698,26.9003 27.8432,26.3493C27.8236,25.9938 27.7005,25.5726 27.7602,25.1954C27.7821,25.0265 27.8916,24.7698 28.0388,24.6906C28.0977,24.6558 28.3152,24.5085 28.3831,24.3197C28.4951,24.0148 28.2561,23.8697 28.1859,23.8281C28.3746,23.7513 28.5545,23.3699 28.3831,23.071C28.2736,22.9546 28.1438,22.4895 28.1309,22.3385C28.0893,22.1189 28.0827,21.8952 28.2888,21.755C28.7516,21.5109 29.1886,21.4515 29.6712,21.2392C30.0027,21.1005 30.174,20.756 30.1606,20.4464ZM11.0529,30.6766C10.9933,30.7845 11,30.8544 10.9735,30.9815C10.9404,31.041 10.7758,30.9619 10.7237,30.9292C10.5192,30.8193 10.5325,30.8766 10.4731,30.6855C10.4407,30.5579 10.4428,30.409 10.6557,30.2973C10.7871,30.2226 11.0529,30.1328 11.1384,30.2973C11.1645,30.409 11.0331,30.5516 11.0529,30.6766ZM12.1803,32.1073C11.9084,32.1139 11.7195,31.9647 11.5949,31.6465C11.4674,31.2383 11.4236,30.881 11.5113,30.4595C11.5397,30.409 11.5988,30.3738 11.6386,30.3916L12.0161,30.2619C12.1431,30.2113 12.2489,30.1939 12.369,30.2225L12.4437,30.299C12.4391,30.5185 12.3848,30.6809 12.3802,30.8848C12.3582,31.3967 12.3144,31.55 12.4612,32.0371C12.4066,32.1668 12.297,32.1049 12.1803,32.1073ZM27.7247,13.0804C27.6878,13.1197 27.6417,13.1657 27.5804,13.1504C27.44,13.0518 27.4922,12.9269 27.5012,12.8085C27.5298,12.7799 27.5343,12.7647 27.5804,12.7647C27.6461,12.7512 27.6831,12.8016 27.7074,12.8371C27.7489,12.9135 27.7558,13.0012 27.7247,13.0804ZM16.9927,19.2747C17.9184,17.6137 19.042,16.1722 20.2469,14.6908L21.9344,12.773C23.1365,11.4896 24.4666,10.1728 25.9414,9.15497C26.1278,9.04918 26.2087,8.83013 26.3997,8.98358L26.5732,9.14367C26.6895,9.27552 26.5885,9.65084 26.4698,9.75599C26.3731,9.83526 26.2811,9.90989 26.1891,9.98616C26.4765,10.2714 26.8933,10.8138 27.2333,11.1647C27.3828,11.3182 27.3367,11.4787 27.6046,11.6012C27.7384,11.6654 27.7775,11.8119 27.6967,11.9372C27.4595,12.2423 27.0646,12.1961 26.7531,12.2753C25.5942,12.532 24.6594,12.863 23.3781,13.4843C22.3535,14.0287 21.535,14.6297 20.7913,15.5622C20.5081,15.9133 20.1895,16.1789 19.9524,16.6002C19.2769,17.4671 18.7414,18.2811 18.2039,19.1743C18.0127,19.4552 17.9517,19.5955 17.6814,19.8478C17.5523,19.973 17.436,19.714 17.3544,19.6241C17.3462,19.6152 17.3393,19.6016 17.3326,19.5932C17.3063,19.5978 17.2782,19.5911 17.2496,19.5737C17.1769,19.4791 16.9512,19.4393 16.9927,19.2747ZM27.1939,12.8607C27.1766,13.1815 26.7485,13.4467 26.3906,13.5454C26.2396,13.5696 26.0991,13.5611 25.9633,13.5611C25.9277,13.5371 25.8886,13.5061 25.893,13.4709C25.9173,13.3196 25.9414,13.2297 25.952,13.0938L26.0397,13.0276C26.3558,12.9641 26.7418,12.8961 27.0603,12.8129C27.1063,12.8214 27.1653,12.8169 27.1939,12.8607ZM23.8696,13.6972L23.927,13.6225C24.1874,13.4993 24.4269,13.4027 24.7144,13.3218L25.0587,13.2321C25.151,13.1484 25.311,13.0805 25.4055,13.199C25.41,13.6444 25.0769,14.182 24.583,14.386C24.427,14.4539 24.2208,14.4758 24.0366,14.5225C23.9905,14.4826 23.841,14.5662 23.795,14.4539C23.8235,14.2303 23.9088,13.8965 23.8696,13.6972ZM20.3391,21.6123C20.2469,21.6645 19.4458,21.3594 19.54,21.4431C19.3491,21.2393 19.6609,21.1707 18.9542,20.9055L18.7829,20.9229C18.7611,20.9427 18.6997,20.9758 18.6362,20.8881C18.6297,20.7803 18.77,20.7956 18.8137,20.6639C19.066,20.0956 18.9256,19.6546 18.9014,19.0665L19.088,18.5839C19.4435,18.158 19.4414,18.0969 19.6827,17.8645C19.9222,17.5263 19.9728,17.4997 20.2951,17.2235C20.3479,17.1774 20.4441,17.1426 20.508,17.1948C20.6592,17.3133 20.6681,17.3925 20.712,17.5437C20.7867,18.1055 20.4461,18.4919 20.0362,18.797C19.7462,19.0468 19.4677,19.4379 19.5311,19.8216L19.5554,19.8456C19.6896,19.7359 19.8564,19.6704 19.9131,19.5316C20.135,19.0362 20.7316,18.8099 21.0654,18.38C21.2125,18.1212 21.122,17.6758 21.0654,17.3774C21.0654,17.3857 21.504,17.1683 21.3856,17.2454C21.594,17.3331 21.5675,17.4824 21.6686,17.6734C21.8664,18.1693 21.8484,18.6188 21.5456,19.0492L20.7121,20.0895C20.6991,20.6178 20.8435,21.3004 20.3391,21.6123ZM21.4383,16.5783C21.2384,16.6704 21.0322,16.6902 20.8107,16.5868C20.7534,16.5121 20.5714,16.4486 20.6439,16.3369C20.8042,16.0755 21.0759,15.8605 21.2428,15.6038L21.322,15.5622C21.6596,15.1543 22.1954,14.8095 22.7021,14.5021L23.0073,14.3685C23.0752,14.3027 23.2308,14.1645 23.2902,14.3072C23.3032,14.8403 23.0773,15.411 22.5684,15.788C22.2612,16.0165 22.1274,15.9727 21.8527,15.9901L21.71,16.2447C21.6776,16.3717 21.5658,16.5014 21.4383,16.5783ZM18.6318,19.6218L18.6185,19.9993C18.5836,20.3436 18.4257,20.7409 18.101,20.9317C17.9078,20.8859 17.9778,20.6531 17.9297,20.4948C18.0549,20.1527 18.2935,19.8674 18.4935,19.5624C18.5222,19.5426 18.5481,19.5297 18.5767,19.5426ZM14.0261,32.737C13.8919,32.8753 13.8154,32.8118 13.6788,32.8252C13.2885,32.7173 13.0604,32.5503 12.9509,32.1094C12.8058,31.4951 12.8121,30.8193 12.9509,30.1895L13.012,30.1412C13.2862,30.1108 13.6991,30.0558 13.813,30.1169C13.925,30.1789 13.6923,31.2844 13.6923,31.2844C13.6834,31.504 13.7913,32.0658 13.8919,32.3556C13.9121,32.3994 14.1378,32.623 14.0261,32.737ZM16.8522,32.0544C16.8106,32.45 16.3146,32.7965 16.0709,32.8668C15.8276,32.937 15.1037,32.9015 14.8952,32.8292C14.6845,32.7565 14.175,31.7629 14.2347,31.2472C14.2347,30.8193 14.3507,30.1434 14.5217,30.0884C14.693,30.036 15.145,30.0625 15.145,30.0625C15.3337,30.0489 15.4788,30.095 15.645,30.1147C15.7613,30.1608 15.6804,30.308 15.7197,30.3933C15.7747,30.6131 15.7876,30.8523 15.9241,31.0715C16.1146,31.4404 16.4634,31.6595 16.8106,31.7892C16.887,31.8617 16.8433,31.9585 16.8522,32.0544ZM16.2949,30.3851C16.2949,30.3056 16.2996,30.2731 16.3584,30.2468L16.6853,30.2468C16.9774,30.2574 17.3506,30.3516 17.6224,30.0709C17.7779,30.0775 17.7914,30.2619 17.8331,30.407C17.87,30.6063 17.8617,30.7339 17.8617,30.9135C17.7958,31.0562 17.7235,31.2736 17.5763,31.3657C17.3416,31.4753 17.1043,31.4534 16.8786,31.3657C16.5382,31.1641 16.2904,30.8411 16.2949,30.3851ZM22.9921,28.8226C22.5552,30.339 22.3467,31.1196 23.0293,32.6801C23.0358,32.7391 23.1016,32.9347 23.0293,32.9589C22.2742,32.8071 22.0746,32.7415 21.3657,32.691C20.712,32.5769 19.6233,32.7589 18.8976,32.7528C18.3291,32.7724 17.7516,32.7922 17.1572,32.8646C16.9792,32.7724 17.1179,32.5724 17.1307,32.4411C17.1966,32.2372 17.2033,32.1315 17.2229,31.8923C17.315,31.7939 17.429,31.8462 17.5409,31.8001C17.9228,31.7412 18.2475,31.4031 18.3396,31.0457C18.4605,30.6706 18.3291,30.2532 18.1554,29.8959C18.123,29.7904 17.9779,29.7094 18.0369,29.6036C18.5065,28.7242 18.1752,27.8309 18.0174,26.9731C17.8525,26.3629 17.6004,25.6888 17.4993,25.0463C17.5211,24.9806 17.4358,24.8267 17.5808,24.816L17.6335,24.8267C18.1359,25.4365 19.5755,26.7247 20.1147,27.1438C20.6529,27.563 22.0459,28.3753 22.9522,28.592C23.0382,28.6642 23.0248,28.7239 22.9921,28.8226Z" style="fill:white;fill-rule:nonzero;"/>
        </g>
        <g id="_48164760">
            <path d="M26.8141,15.652C26.9064,15.7728 26.968,15.8785 26.8933,15.9902C26.722,16.0032 26.6957,15.7864 26.5513,15.7138C26.312,15.5953 26.099,15.7199 25.8621,15.7796C25.2611,16.0386 24.7584,16.5541 24.1746,16.8237C24.102,16.8237 24.0364,16.8171 23.9904,16.7648C24.0891,16.6659 24.2492,16.6461 24.3745,16.5648C24.9758,16.17 25.5594,15.5492 26.3121,15.4351C26.5114,15.4217 26.6896,15.4943 26.8141,15.652Z" style="fill:white;fill-rule:nonzero;"/>
        </g>
        <g id="_82784152">
            <path d="M26.7683,16.6728C26.7222,16.5257 26.7289,16.2885 26.5515,16.2554C26.5116,16.348 26.5515,16.4487 26.5116,16.5346C26.4572,16.6002 26.3646,16.6789 26.2594,16.6526C25.5309,16.6991 24.9887,17.3394 24.3681,17.6708C24.1551,17.7896 23.918,17.8574 23.6923,17.9165C23.6725,17.9497 23.6787,17.9957 23.7118,18.0152C24.4006,18.0878 25.0808,18.1534 25.7635,18.2258L26.5229,18.1405C26.5448,18.0418 26.424,17.9562 26.4437,17.8421C26.5314,17.5328 26.5577,17.1946 26.4724,16.9031C26.5314,16.7452 26.7556,16.8632 26.7683,16.6728ZM26.2375,17.8462C26.1432,17.9849 25.996,17.8643 25.8669,17.8818C25.5686,17.8462 25.0658,17.9166 24.7365,17.8749C24.686,17.8462 24.6512,17.7962 24.6794,17.7501C24.73,17.6665 24.8681,17.662 24.954,17.5985C25.3136,17.375 25.6911,17.1599 26.1018,17.0633C26.1765,17.052 26.2376,17.1138 26.2506,17.1665C26.2987,17.3568 26.2685,17.662 26.2375,17.8462Z" style="fill:white;fill-rule:nonzero;"/>
        </g>
        <g id="_81751608">
            <path d="M27.1547,20.0826C27.1766,20.0471 27.2053,20.0078 27.2378,20.0055C27.2794,20.0214 27.3036,20.0409 27.3104,20.1218C27.3036,20.2494 27.2732,20.383 27.2378,20.5259C27.1985,20.686 27.1568,20.8526 27.1568,21.015C27.1568,21.0852 27.1653,21.1577 27.1851,21.228C27.2794,21.3464 27.4289,21.3751 27.6046,21.3133C27.6086,21.311 27.9073,21.1404 27.9073,21.1404C28.1663,20.9865 28.4094,20.8399 28.8663,20.7236C28.8746,20.7213 28.8769,20.7254 28.8791,20.7275C28.8883,20.7342 28.8904,20.7516 28.8904,20.7735C28.8904,20.8113 28.8791,20.8656 28.8596,20.908C28.8422,20.9162 28.423,21.1029 28.423,21.1029C28.094,21.2477 27.7513,21.3971 27.4308,21.5815C27.3366,21.5989 27.249,21.5484 27.1652,21.4978L27.1434,21.4872C27.0226,21.3203 26.9833,21.1602 26.9833,20.9978C26.9833,20.8528 27.0141,20.708 27.0468,20.5592C27.0754,20.421 27.1085,20.2783 27.1147,20.1265C27.1261,20.1156 27.1547,20.0826 27.1547,20.0826Z" style="fill:white;fill-rule:nonzero;"/>
        </g>
        <g id="_111035472">
            <path d="M16.8456,19.9466C17.0848,20.4358 16.8328,20.8985 16.8456,21.4075C16.8851,21.5526 17.1703,21.5724 17.0848,21.7458C17.0192,21.7919 16.9248,21.8047 16.8523,21.7526C16.7209,21.6666 16.6742,21.601 16.6416,21.4473C16.6062,20.9999 16.9642,20.475 16.6485,20.0514C16.5563,19.9595 16.422,19.8673 16.2905,19.8605C16.0051,19.9134 15.8603,20.2182 15.7613,20.4425C15.6102,21.0368 15.5686,21.6665 16.0928,22.1429C16.3979,22.3204 16.7668,22.5136 16.7888,22.8979C16.8327,22.9636 16.9247,23.027 16.9995,22.9902C17.0916,22.9833 17.1045,22.7177 17.236,22.8451L17.2759,22.935C17.2428,23.0423 17.2103,23.227 17.0389,23.2331C16.9535,23.2529 16.8591,23.2068 16.7889,23.1545C16.6025,22.9635 16.7468,22.6715 16.4355,22.5468C15.9199,22.3866 15.5817,21.8445 15.529,21.335C15.4964,20.8459 15.5182,20.3104 15.9397,19.8807C16.1063,19.7554 16.3233,19.6739 16.5362,19.7421C16.6547,19.7624 16.7929,19.8454 16.8456,19.9466Z" style="fill:white;fill-rule:nonzero;"/>
        </g>
        <g id="_111045264">
            <path d="M10.3789,23.5232C9.43798,23.9598 9.15023,25.0831 9.13729,25.1292L9.11306,25.2302L9.20928,25.2633C9.24682,25.2741 10.1203,25.5615 11.1889,25.037C12.264,24.5108 12.4854,23.444 12.4944,23.3979L12.5162,23.286L12.4023,23.2687C12.3583,23.2599 11.3052,23.0952 10.3789,23.5232ZM10.4732,23.7271C11.1602,23.4069 11.9459,23.4441 12.2422,23.4727C12.1585,23.7444 11.8715,24.4535 11.0899,24.8377C10.3068,25.2214 9.6328,25.1292 9.38723,25.077C9.47953,24.8046 9.78232,24.0479 10.4732,23.7271Z" style="fill:white;fill-rule:nonzero;"/>
        </g>
        <g id="_111057648">
            <path d="M11.3179,21.4099C10.3749,21.8358 10.0261,22.9462 10.0125,22.9947L9.98005,23.0997L10.0851,23.1328C10.122,23.1434 10.9934,23.4045 12.0641,22.8936C13.1438,22.3755 13.3741,21.3464 13.3831,21.3027L13.4073,21.1907L13.2932,21.1705C13.2515,21.1621 12.2466,20.9907 11.3179,21.4099ZM11.4101,21.6123C12.095,21.3028 12.8433,21.3419 13.1307,21.3728C13.0409,21.6403 12.7487,22.3183 11.9681,22.6913C11.1909,23.0626 10.5215,22.9923 10.267,22.9463C10.3749,22.6677 10.7192,21.9233 11.4101,21.6123Z" style="fill:white;fill-rule:nonzero;"/>
        </g>
        <g id="_82872168">
            <path d="M12.545,19.3736C11.5989,19.7886 11.1889,20.8897 11.1736,20.9358L11.1315,21.0481L11.2479,21.0808C11.2854,21.092 12.1544,21.3245 13.2252,20.8239C14.3109,20.3197 14.5481,19.3276 14.5593,19.2838L14.5835,19.1719L14.4717,19.1501C14.4317,19.1432 13.4774,18.9634 12.545,19.3736ZM12.6326,19.578C13.3174,19.277 14.0263,19.319 14.3049,19.3517C14.2127,19.6105 13.9123,20.26 13.1331,20.6224C12.3631,20.9825 11.7002,20.9317 11.4344,20.8896C11.562,20.6089 11.9459,19.8808 12.6326,19.578Z" style="fill:white;fill-rule:nonzero;"/>
        </g>
        <g id="_111066936">
            <path d="M13.7604,17.3616C12.8145,17.7675 12.3449,18.8556 12.3275,18.9017L12.2746,19.0225L12.4022,19.0536C12.4391,19.0625 13.306,19.2709 14.3811,18.7832C15.472,18.29 15.7153,17.3329 15.7266,17.2913L15.7552,17.1794L15.6413,17.1554C15.6035,17.1462 14.6996,16.9619 13.7604,17.3616ZM13.848,17.5677C14.5283,17.2783 15.202,17.322 15.47,17.3547C15.3733,17.6074 15.0683,18.2282 14.2891,18.5794C13.5278,18.9259 12.8695,18.8956 12.5954,18.8603C12.7422,18.5725 13.1634,17.8596 13.848,17.5677Z" style="fill:white;fill-rule:nonzero;"/>
        </g>
        <g id="_111358368">
            <path d="M15.4458,15.3492C14.4976,15.7441 13.969,16.8216 13.9471,16.8677L13.8858,16.995L14.024,17.026C14.0588,17.0322 14.9233,17.2141 16.0032,16.7407C17.0957,16.2574 17.3507,15.3362 17.3613,15.2963L17.39,15.1869L17.2783,15.1583C17.2428,15.1519 16.3895,14.9588 15.4458,15.3492ZM15.5311,15.5553C16.2092,15.2744 16.8434,15.3205 17.1024,15.356C17.0018,15.6037 16.6922,16.1918 15.9131,16.5362C15.1536,16.8698 14.5043,16.8571 14.2234,16.8284C14.3925,16.5363 14.8485,15.8386 15.5311,15.5553Z" style="fill:white;fill-rule:nonzero;"/>
        </g>
        <g id="_111528120">
            <path d="M17.3045,13.4074C16.354,13.7915 15.7636,14.86 15.7396,14.9061L15.6676,15.0396L15.8165,15.0683C15.854,15.0751 16.7165,15.2308 17.7961,14.7655C18.8954,14.2959 19.1583,13.4119 19.1696,13.3747L19.2005,13.2623L19.0883,13.236C19.0555,13.2275 18.25,13.0252 17.3045,13.4074ZM17.3878,13.6136C18.0589,13.344 18.6582,13.3921 18.9084,13.4293C18.8033,13.6685 18.4849,14.2304 17.708,14.5618C16.9575,14.8841 16.3148,14.8864 16.025,14.8667C16.2137,14.5701 16.7073,13.8904 17.3878,13.6136Z" style="fill:white;fill-rule:nonzero;"/>
        </g>
        <g id="_114230976">
            <path d="M19.288,11.5732C18.336,11.9438 17.6861,13.0033 17.6596,13.0494L17.5742,13.1899L17.7366,13.2162C17.7742,13.2207 18.6342,13.3521 19.7163,12.9005C20.8193,12.4415 21.0897,11.5927 21.1003,11.5574L21.1358,11.4478L21.0262,11.4168C20.9952,11.4087 20.238,11.1996 19.288,11.5732ZM19.3688,11.7794C20.0341,11.5203 20.6003,11.5687 20.8412,11.6057C20.7295,11.8384 20.407,12.3716 19.6302,12.6945C18.8909,13.0034 18.2523,13.0236 17.9539,13.0102C18.1668,12.7095 18.6933,12.0445 19.3688,11.7794Z" style="fill:white;fill-rule:nonzero;"/>
        </g>
        <g id="_48808752">
            <path d="M21.3508,9.879C20.3958,10.2407 19.6876,11.29 19.6589,11.334L19.5576,11.485L19.738,11.5071C19.7729,11.5116 20.6306,11.615 21.7171,11.1756C22.8232,10.7285 23.1042,9.91618 23.1147,9.88137L23.1503,9.77567L23.0424,9.74086C23.014,9.73184 22.3075,9.51443 21.3508,9.879ZM21.4293,10.0851C22.0901,9.83526 22.6209,9.88574 22.8518,9.92501C22.7355,10.1509 22.404,10.6582 21.6338,10.9694C20.8985,11.266 20.2688,11.3008 19.9637,11.2962C20.1986,10.9913 20.7559,10.3418 21.4293,10.0851Z" style="fill:white;fill-rule:nonzero;"/>
        </g>
        <g id="_48137184">
            <path d="M23.446,8.36051C22.4894,8.71405 21.7238,9.75371 21.6906,9.79754L21.5743,9.95381L21.7698,9.97349C21.8046,9.97795 22.6606,10.0544 23.7488,9.62678C24.8616,9.18987 25.1485,8.41509 25.1598,8.38256L25.197,8.27686L25.0918,8.24205C25.0656,8.23075 24.4071,8.00724 23.446,8.36051ZM23.5229,8.56899C24.1769,8.32971 24.6752,8.37791 24.8943,8.41955C24.7734,8.63687 24.438,9.11716 23.6679,9.41994C22.9416,9.70524 22.3204,9.75371 22.0068,9.75599C22.2635,9.44855 22.8535,8.81674 23.5229,8.56899Z" style="fill:white;fill-rule:nonzero;"/>
        </g>
        <g id="_82940240">
            <path d="M8.87387,21.3949C8.84526,21.4297 8.19148,22.2789 8.1236,23.3014C8.05544,24.3438 8.90658,25.1381 8.94421,25.1715L9.01893,25.2415L9.09529,25.1715C9.12399,25.1472 9.79745,24.513 9.84802,23.3193C9.90315,22.1168 9.06741,21.4076 9.03187,21.3774L8.94421,21.3047ZM8.34237,23.4175C8.34237,23.3852 8.34465,23.3519 8.34702,23.3171C8.39522,22.5508 8.8099,21.8771 8.97674,21.634C9.16991,21.8334 9.6287,22.3908 9.6287,23.2137C9.6287,23.2445 9.6287,23.2771 9.62669,23.3104C9.58678,24.1883 9.1834,24.7365 9.01647,24.9275C8.82776,24.7258 8.34237,24.1377 8.34237,23.4175Z" style="fill:white;fill-rule:nonzero;"/>
        </g>
        <g id="_82893400">
            <path d="M10.2012,19.1039C10.1793,19.1282 9.64619,19.7163 9.41994,20.5589C9.38951,20.675 9.36536,20.7955 9.34969,20.9228C9.22732,21.9324 9.95581,22.7597 9.98852,22.7946L10.0587,22.8762L10.1425,22.8059C10.1729,22.7817 10.8597,22.1847 11.0003,21.0239C11.1406,19.8522 10.3925,19.1282 10.3593,19.0996L10.2784,19.0204ZM9.55872,21.1509C9.55872,21.0852 9.56254,21.0194 9.57147,20.9516C9.5845,20.8353 9.60655,20.7235 9.63498,20.6178C9.79736,20.0123 10.1356,19.5405 10.2868,19.3494C10.4473,19.5382 10.7939,20.0342 10.7939,20.7409C10.7939,20.8218 10.7895,20.9099 10.7782,20.9975C10.6776,21.8422 10.2562,22.3665 10.0806,22.5553C9.92255,22.3469 9.55872,21.7987 9.55872,21.1509Z" style="fill:white;fill-rule:nonzero;"/>
        </g>
        <g id="_82889776">
            <path d="M11.691,16.9558C11.6667,16.9777 11.1073,17.4974 10.8243,18.336C10.7895,18.4432 10.7584,18.5575 10.7342,18.6889C10.5591,19.6658 11.167,20.5235 11.1909,20.561L11.2591,20.6549L11.3511,20.5829C11.3797,20.5589 12.0843,19.9971 12.31,18.8714C12.5381,17.7322 11.8759,16.9928 11.8473,16.9618L11.7725,16.8809ZM10.9278,19.049C10.9278,18.9439 10.9367,18.8337 10.9563,18.7265C10.9761,18.6081 11.0023,18.5047 11.035,18.4081C11.2371,17.8114 11.595,17.3811 11.7573,17.208C11.8843,17.3855 12.1345,17.8159 12.1345,18.4063C12.1345,18.5401 12.1214,18.6804 12.0905,18.8293C11.9284,19.6393 11.4941,20.1376 11.3054,20.3242C11.1797,20.1133 10.9278,19.6173 10.9278,19.049Z" style="fill:white;fill-rule:nonzero;"/>
        </g>
        <g id="_82869456">
            <path d="M13.3279,14.9476C13.302,14.9673 12.7183,15.4217 12.3757,16.2537C12.3364,16.3496 12.3012,16.4621 12.2709,16.5913C12.0399,17.535 12.5207,18.4258 12.5426,18.463L12.6015,18.5726L12.705,18.4986C12.7358,18.4781 13.4532,17.9497 13.7671,16.8616C14.0829,15.7554 13.5081,14.9983 13.4842,14.9673L13.4162,14.8797ZM12.4331,17.1182C12.4331,16.9643 12.4483,16.8018 12.4853,16.6441C12.5139,16.5257 12.547,16.4244 12.5819,16.3369C12.8234,15.7532 13.1988,15.3629 13.3723,15.2044C13.4668,15.3667 13.6352,15.7246 13.6352,16.2053C13.6352,16.3874 13.6133,16.5868 13.5522,16.7997C13.328,17.5742 12.8809,18.0484 12.6787,18.2306C12.591,18.0309 12.4331,17.6053 12.4331,17.1182Z" style="fill:white;fill-rule:nonzero;"/>
        </g>
        <g id="_82898896">
            <path d="M15.1014,13.0781C15.075,13.0938 14.4672,13.4819 14.0655,14.3072C14.0194,14.3993 13.9778,14.5021 13.9382,14.6341C13.655,15.5448 14.0126,16.4642 14.0301,16.5036L14.0808,16.6289L14.1948,16.5542C14.2257,16.5323 14.9564,16.0408 15.3561,14.9876C15.7615,13.9141 15.2744,13.1441 15.2526,13.1113L15.1936,13.0192ZM14.0542,15.3778C14.0542,15.1604 14.0808,14.928 14.1509,14.7C14.1887,14.5813 14.2235,14.4871 14.2649,14.4055C14.5458,13.8286 14.9414,13.4775 15.1211,13.3371C15.189,13.4775 15.2941,13.7563 15.2941,14.1314C15.2941,14.3594 15.2546,14.6208 15.1475,14.9061C14.8688,15.6458 14.4054,16.0953 14.1907,16.2779C14.1358,16.0953 14.0542,15.7639 14.0542,15.3778Z" style="fill:white;fill-rule:nonzero;"/>
        </g>
        <g id="_117735336">
            <path d="M16.9995,11.3446C16.9731,11.3581 16.3434,11.6783 15.8761,12.4968C15.8277,12.5866 15.7816,12.6855 15.7335,12.8108C15.3952,13.6881 15.6322,14.6366 15.6434,14.6758L15.6806,14.8205L15.8082,14.7414C15.8383,14.724 16.5844,14.2651 17.0697,13.2471C17.5636,12.2091 17.1642,11.4261 17.1462,11.393L17.0956,11.2962ZM15.7771,13.8594C15.7771,13.5651 15.8143,13.2186 15.9396,12.8894C15.9857,12.7754 16.025,12.6855 16.071,12.6064C16.3933,12.0422 16.804,11.7289 16.9949,11.6057C17.0366,11.7221 17.094,11.9244 17.094,12.203C17.094,12.4659 17.041,12.7904 16.8676,13.1529C16.5321,13.8595 16.0558,14.283 15.8277,14.4561C15.8034,14.3201 15.7771,14.1095 15.7771,13.8594Z" style="fill:white;fill-rule:nonzero;"/>
        </g>
        <g id="_47326760">
            <path d="M19.0139,9.74515C18.9852,9.75599 18.336,10.0103 17.8046,10.8203C17.75,10.9059 17.6972,11.0046 17.6422,11.1209C17.2541,11.9657 17.3681,12.9421 17.3726,12.9814L17.3924,13.1438L17.5372,13.0651C17.5698,13.0477 18.327,12.6264 18.8979,11.6434C19.4815,10.6379 19.1696,9.84128 19.1563,9.80856L19.1147,9.70514ZM17.5765,12.5978C17.5765,12.2511 17.6202,11.7001 17.8444,11.2131C17.8943,11.1052 17.9426,11.0175 17.9908,10.9428C18.3554,10.3879 18.7829,10.1137 18.9806,10.0058C19.0024,10.0963 19.0246,10.2277 19.0246,10.4031C19.0246,10.6951 18.9587,11.0922 18.7065,11.5309C18.3134,12.205 17.8239,12.6022 17.5808,12.7707C17.5787,12.7224 17.5765,12.6658 17.5765,12.5978Z" style="fill:white;fill-rule:nonzero;"/>
        </g>
        <g id="_81988928">
            <path d="M21.1358,8.27914C21.1071,8.2857 20.4379,8.47677 19.8408,9.2778C19.7797,9.35871 19.7179,9.4532 19.661,9.56045C19.2179,10.3728 19.211,11.3776 19.211,11.4215L19.2134,11.599L19.3711,11.5202C19.4066,11.5028 20.1789,11.114 20.8349,10.1666C21.5017,9.19862 21.2803,8.38912 21.2714,8.35595L21.2404,8.2487ZM19.8566,9.66833C19.9088,9.56938 19.9638,9.48637 20.019,9.40928C20.4268,8.86494 20.8722,8.62566 21.0784,8.53791C21.0829,8.59076 21.0897,8.65209 21.0897,8.73345C21.0897,9.03178 21.0171,9.51033 20.6509,10.0414C20.2054,10.6823 19.7027,11.0552 19.4436,11.2199C19.4678,10.893 19.5514,10.2233 19.8566,9.66833Z" style="fill:white;fill-rule:nonzero;"/>
        </g>
        <g id="_82907120">
            <path d="M23.3451,6.9427C23.3167,6.94716 22.6321,7.07473 21.9648,7.86008C21.3047,8.6437 21.1485,9.93394 21.1424,9.98852L21.1205,10.1817L21.298,10.1025C21.3311,10.0875 22.1188,9.73403 22.858,8.81892C23.613,7.88878 23.4792,7.06589 23.4748,7.03272L23.4551,6.9232ZM22.1361,8.00505C22.5883,7.47192 23.0488,7.26745 23.2618,7.19719C23.2641,7.20166 23.2641,7.20403 23.2641,7.21059C23.2641,7.46964 23.1961,8.04879 22.6849,8.68061C22.189,9.29292 21.6686,9.63963 21.399,9.79736C21.4716,9.40044 21.6732,8.55158 22.1361,8.00505Z" style="fill:white;fill-rule:nonzero;"/>
        </g>
        <g id="_82162616">
            <path d="M2.18129,17.9979C2.18129,23.3896 5.09718,28.5745 9.79289,31.5349L9.98843,31.6556L10.1288,31.4731C10.1681,31.4224 10.1838,31.3724 10.1838,31.3281C10.1838,31.2117 10.0851,31.122 10.0299,31.0697L9.75818,30.8086C8.78813,29.7093 8.52917,28.6665 8.52917,27.8655C8.52917,26.9791 8.84763,26.3869 8.87396,26.3425L8.95943,26.1848L8.84079,26.051C6.85495,23.8373 5.80854,21.0543 5.80854,17.9978C5.80854,11.2742 11.2767,5.80627 18.0002,5.80627C19.8696,5.80627 21.6621,6.2163 23.3299,7.02862L23.5035,7.114L25.9522,4.31821L25.6824,4.16704C23.3452,2.86596 20.688,2.1792 18.0001,2.1792C9.27552,2.1792 2.18129,9.27561 2.18129,17.9979ZM2.68126,17.9979C2.68126,9.55207 9.55416,2.68135 18.0001,2.68135C20.4969,2.68135 22.9659,3.3005 25.1579,4.46099C24.8353,4.82792 23.569,6.27607 23.3715,6.49731C21.6863,5.70749 19.8808,5.30366 18.0002,5.30366C11.0003,5.30366 5.30347,10.9981 5.30347,17.9979C5.30347,21.1206 6.36136,23.9709 8.36051,26.2573C8.24424,26.5229 8.03968,27.1044 8.03968,27.8745C8.03968,28.511 8.18683,29.2744 8.63696,30.0868C4.93052,27.1352 2.68126,22.6452 2.68126,17.9979Z" style="fill:white;fill-rule:nonzero;"/>
        </g>
        <g id="_49059128">
            <path d="M23.5494,6.57877C21.8115,5.73164 19.9463,5.30356 18,5.30356C11,5.30356 5.3032,10.998 5.3032,17.9978C5.3032,21.1774 6.39635,24.0804 8.46538,26.3869L8.68279,26.6279L9.64847,25.1715L9.5979,25.1118C9.51024,25.1013 9.43999,25.0875 9.38723,25.077C9.39999,25.0371 9.41967,24.9848 9.44163,24.9275C9.36755,24.8377 9.29065,24.7455 9.21802,24.6534C9.14121,24.778 9.06713,24.868 9.01638,24.9275C8.82767,24.7257 8.34228,24.1377 8.34228,23.4175C8.34228,23.3956 8.34465,23.3714 8.34465,23.3496C7.44294,21.761 6.98407,19.9685 6.98407,17.9979C6.98407,11.9244 11.9256,6.98261 18,6.98261C19.4896,6.98261 20.9271,7.2741 22.2808,7.84714C22.4259,7.69552 22.5685,7.57689 22.7022,7.48495C21.2209,6.82188 19.6413,6.47982 18,6.47982C11.6472,6.47982 6.47963,11.6473 6.47963,17.9979C6.47963,20.7516 7.3397,23.1721 9.02248,25.204C8.92654,25.3511 8.78785,25.5595 8.63222,25.7966C6.78916,23.6243 5.80827,20.9403 5.80827,17.9979C5.80827,11.2743 11.2765,5.80636 18,5.80636C19.7862,5.80636 21.4996,6.18605 23.1041,6.92757C23.0359,7.07236 22.9719,7.21533 22.9041,7.35793C23.0533,7.2741 23.1764,7.22353 23.2618,7.19719C23.2642,7.20166 23.2642,7.20403 23.2642,7.21059C23.2642,7.39929 23.227,7.7573 23.0096,8.18255L23.0662,8.21116L23.7706,6.68374Z" style="fill:white;fill-rule:nonzero;"/>
        </g>
        <g id="_122255456">
            <path d="M23.4354,4.08786L22.2214,5.62439C22.3337,5.6613 22.4434,5.70057 22.5529,5.74285L23.7577,4.21998C23.6522,4.17387 23.545,4.13014 23.4354,4.08786Z" style="fill:white;fill-rule:nonzero;"/>
        </g>
        <g id="_111525640">
            <path d="M21.0611,3.38132L20.3522,5.13499C20.4644,5.15477 20.5762,5.17664 20.6857,5.20087L21.3925,3.45376C21.2805,3.42779 21.1706,3.40529 21.0611,3.38132Z" style="fill:white;fill-rule:nonzero;"/>
        </g>
        <g id="_81748496">
            <path d="M18.2349,3.0656L18.0613,4.92442C18.173,4.92442 18.2855,4.92615 18.395,4.92825L18.5702,3.07453C18.4585,3.07216 18.3466,3.06778 18.2349,3.0656Z" style="fill:white;fill-rule:nonzero;"/>
        </g>
        <g id="_48970056">
            <path d="M15.4805,3.27617L15.8339,5.10192C15.944,5.08452 16.0536,5.06647 16.1653,5.05135L15.812,3.22332C15.7003,3.23909 15.5908,3.25649 15.4805,3.27617Z" style="fill:white;fill-rule:nonzero;"/>
        </g>
        <g id="_47284000">
            <path d="M12.8106,3.99127L13.6465,5.66813C13.7515,5.6305 13.8572,5.59578 13.9645,5.56025L13.1263,3.87956C13.0213,3.91719 12.9156,3.9541 12.8106,3.99127Z" style="fill:white;fill-rule:nonzero;"/>
        </g>
        <g id="_48122368">
            <path d="M10.2759,5.21828L11.5224,6.64228C11.6207,6.58551 11.7197,6.53039 11.8207,6.47535L10.5676,5.04461C10.4694,5.10192 10.3726,5.16087 10.2759,5.21828Z" style="fill:white;fill-rule:nonzero;"/>
        </g>
        <g id="_82943656">
            <path d="M7.97407,6.9365L9.5476,8.02911C9.63507,7.95439 9.72501,7.88195 9.81549,7.80723L8.23066,6.70789C8.14537,6.7826 8.05763,6.85969 7.97407,6.9365Z" style="fill:white;fill-rule:nonzero;"/>
        </g>
        <g id="_111743952">
            <path d="M6.01465,9.09319L7.82291,9.79745C7.89699,9.70524 7.97179,9.61548 8.04642,9.52783L6.22532,8.81674C6.15516,8.90886 6.08482,9.00107 6.01465,9.09319Z" style="fill:white;fill-rule:nonzero;"/>
        </g>
        <g id="_81670368">
            <path d="M4.5029,11.6057L6.44874,11.8777C6.50387,11.7704 6.561,11.6671 6.62005,11.5643L4.65617,11.29C4.6035,11.3951 4.55065,11.5008 4.5029,11.6057Z" style="fill:white;fill-rule:nonzero;"/>
        </g>
        <g id="_82778632">
            <path d="M3.51099,14.3617L5.49446,14.1712C5.532,14.0566 5.56918,13.9403 5.60635,13.8263L3.60302,14.0173C3.56985,14.1314 3.53969,14.2454 3.51099,14.3617Z" style="fill:white;fill-rule:nonzero;"/>
        </g>
        <g id="_49035160">
            <path d="M3.08063,17.2473L5.0005,16.5807C5.01408,16.4575 5.02911,16.3346 5.04442,16.2117L3.10241,16.8873C3.09403,17.0058 3.08747,17.1267 3.08063,17.2473Z" style="fill:white;fill-rule:nonzero;"/>
        </g>
        <g id="_82868520">
            <path d="M3.23007,20.1634L4.9636,19.0248C4.9544,18.8977 4.9462,18.7702 4.93936,18.6412L3.17713,19.7972C3.19462,19.9201 3.21039,20.0409 3.23007,20.1634Z" style="fill:white;fill-rule:nonzero;"/>
        </g>
        <g id="_82947392">
            <path d="M3.96931,23.0165L5.376,21.4672C5.34111,21.3375 5.31013,21.2061 5.27933,21.0762L3.84229,22.6587C3.88384,22.7795 3.92549,22.898 3.96931,23.0165Z" style="fill:white;fill-rule:nonzero;"/>
        </g>
        <g id="_82847744">
            <path d="M5.29272,25.7416L6.28874,23.848C6.2276,23.7249 6.16409,23.6025 6.10678,23.4772L5.09281,25.4064C5.1585,25.518 5.22484,25.632 5.29272,25.7416Z" style="fill:white;fill-rule:nonzero;"/>
        </g>
        <g id="_47020472">
            <path d="M6.98871,28.0126L7.52212,25.8208C7.43401,25.7044 7.34635,25.5859 7.26335,25.4674L6.72137,27.7077C6.80885,27.811 6.89887,27.9115 6.98871,28.0126Z" style="fill:white;fill-rule:nonzero;"/>
        </g>
        <g id="_48970168">
            <path d="M23.1872,8.32287C23.2333,8.35149 23.2794,8.38247 23.323,8.41335C23.3653,8.39531 23.4047,8.37572 23.4462,8.36041C23.4944,8.34301 23.5429,8.32734 23.5913,8.3123C23.4879,8.24433 23.3917,8.16724 23.2991,8.08597C23.2686,8.16287 23.2288,8.24205 23.1872,8.32287Z" style="fill:white;fill-rule:nonzero;"/>
        </g>
    </g>
</svg>
