<?xml version="1.0" standalone="no"?><!DOCTYPE svg PUBLIC "-//W3C//DTD SVG 1.1//EN" "http://www.w3.org/Graphics/SVG/1.1/DTD/svg11.dtd"><svg width="100%" height="100%" viewBox="0 0 80 79" version="1.1" xmlns="http://www.w3.org/2000/svg" xmlns:xlink="http://www.w3.org/1999/xlink" xml:space="preserve" style="fill-rule:evenodd;clip-rule:evenodd;stroke-linejoin:round;stroke-miterlimit:1.41421;"><g id="_84203480"><path id="_49116176" d="M1.1159,40c0,-21.4387 17.4432,-38.8834 38.8844,-38.8834c21.436,0 38.8773,17.4448 38.8773,38.8834c0,21.4438 -17.4413,38.8838 -38.8773,38.8838c-21.4414,-0.00020251 -38.8844,-17.4402 -38.8844,-38.8838ZM-1.77636e-14,40c0,22.0584 17.9447,40 40.0003,40c22.055,0 39.9997,-17.9416 39.9997,-40c0,-22.0576 -17.9447,-40 -39.9997,-40c-22.0556,-2.66454e-15 -40.0003,17.9422 -40.0003,40Z" style="fill:#161922;fill-opacity:0.498039;fill-rule:nonzero;"/><path id="_48873840" d="M66.2781,46.506c-1.09241,1.01356 -2.63414,1.02855 -3.88247,1.85236c-0.570403,0.570471 -0.428055,1.22498 -0.194387,1.94632c0.462681,0.911296 0.28672,0.819356 -0.35597,1.03381c-1.5067,0.501618 -1.49171,2.15126 -3.3068,1.87747c-0.102458,0.0289589 -0.525654,-0.184892 -0.272344,0.122316c0.194994,0.229039 0.272344,0.0925471 0.657877,0.136492c0.644513,0.0334142 0.887901,-0.234912 1.34086,-0.542322c0.643906,-0.54536 0.565543,-0.7503 1.36577,-1.13102c0.189729,-0.0486024 0.657675,-0.184487 0.921109,-0.0919396c0.175758,0.160996 0.181225,0.165653 0.209776,0.311866c-0.102458,0.443092 -0.745554,0.80923 -0.995016,0.9601c0.341999,0.249492 0.976185,0.669296 0.868665,1.01964c-0.14741,0.233697 -0.137488,0.273794 -0.390798,0.394692c-0.360425,0.175779 -1.07702,0.146212 -1.75515,-0.356013c-0.102458,0.0340217 -0.214635,-0.19441 -0.501558,0.0789789c0.657675,0.678206 1.57919,0.525514 1.71647,0.662816c0.14093,0.135884 -0.493053,0.955038 -0.517149,1.13102c-0.444457,1.17598 0.0975983,2.25839 -0.137286,3.48176c-0.145992,0.951393 -0.434535,1.40502 -1.26675,2.01012c-1.53687,1.06277 -2.6143,1.37018 -4.33097,1.64843c-4.51524,0.306803 -7.3634,-1.24382 -10.6103,-3.67313c-3.25314,-2.4285 -4.49681,-3.71545 -5.51025,-5.08138c-0.014984,-0.560548 0.394443,-0.985212 0.0439395,-1.5893c-0.293402,0.10247 -0.263839,0.486834 -0.4398,0.706355c-0.25331,0.355608 -0.852669,0.614213 -1.28194,0.570673c-1.3358,-0.453218 -1.4093,-2.02368 -2.2482,-2.92182c-1.78917,-1.76528 -2.29194,-4.31083 -1.3358,-6.44185c0.335924,-0.658158 0.941155,-1.29242 1.61888,-1.52713c0.83404,-0.131024 1.81873,-0.131024 2.36463,0.678206c0.644108,0.615226 1.04361,1.61421 1.20439,2.49675c0.263434,0.424664 -0.058316,0.912713 0.380876,1.26346c0.765195,0.0735112 1.42287,0.263466 2.15951,-0.204738c0.546712,0.0735112 0.619405,0.678206 1.03349,0.941267l0.731177,0.439244c0.780381,0.320979 1.78532,0.320979 2.44299,-0.249492c1.23476,-1.26204 0.966263,-2.56418 1.39088,-3.95988c1.17948,-1.04272 1.95986,-2.53583 1.94468,-3.99431c-0.072085,-0.896107 -0.39424,-1.82381 -0.926171,-2.71667c0.087474,-0.530374 0.385533,-0.926281 0.555419,-1.39955c0.151055,-0.0872819 0.341999,-0.0872819 0.502773,-0.116038c1.3113,-0.278451 2.50192,-1.468 3.0136,-2.72174l0.117442,-0.117456c1.50164,-0.101863 3.36916,-0.634262 4.23196,-2.20311c0.18082,-0.678004 0.941155,-0.175981 1.41396,-0.337382c0.795568,-0.0433372 1.58911,-0.487847 2.18968,-0.999792c0.17434,-0.0585254 0.307171,0.132037 0.414084,0.219723c0.351111,1.17456 0.995016,2.307 1.36597,3.5018c0.452759,0.892665 0.619,1.74543 0.452759,2.65795c0.190134,1.39489 0.990562,2.70655 1.54578,4.11602c0.556634,1.48723 1.42429,2.98399 2.05847,4.51577c0.117239,0.615226 0.380471,1.10368 0.00121492,1.60064ZM66.5853,43.9404c-1.0588,-2.44328 -2.2482,-4.53987 -3.11585,-6.99774c-0.619,-0.882944 -0.263232,-1.81895 -0.341999,-2.76568c-0.39424,-1.468 -1.01385,-2.59942 -1.59883,-4.02874c-0.166039,-0.409475 0.291985,-0.525514 0.452961,-0.819153c0.263232,-0.721544 0.0787671,-1.53037 -0.248248,-2.22336c-0.131211,-0.395907 0.340581,-0.672941 0.248248,-1.08242c-0.013769,-0.634059 -0.570403,-1.06358 -1.01344,-1.39955c-0.664357,-0.956455 -0.971528,-1.45807 -1.79524,-2.32198l0,-0.166058c0.414286,-0.365733 0.751628,-0.998982 0.741706,-1.54049c-0.166039,-0.614416 -0.297249,-1.18975 -0.888104,-1.61947c-0.941155,-0.526729 -1.89608,0.297285 -2.64265,0.721949c-0.209371,0.145807 -0.311828,0.293437 -0.605231,0.268528c-0.189729,-0.0688534 -0.384521,-0.140947 -0.589234,-0.214661c-0.190944,0.219318 -0.42927,0.454433 -0.716801,0.682864l0.911592,0.370999c0.029563,0.0251113 0.0435345,0.0433372 0.0435345,0.0783714c0,0.0135682 -0.00992182,0.0439447 -0.00992182,0.0674359c-0.0623657,0.0538677 -2.11557,1.85398 -2.11557,1.85398c-0.00506215,0.00384769 -3.69679,3.647 -3.69679,3.647c0,0.00465773 -1.05333,1.07877 -1.05333,1.07877c-0.00850441,0.00465773 -3.28574,3.7839 -3.28574,3.7839c-1.71647,1.99027 -4.25302,5.2523 -5.77348,7.64172c-0.795163,1.09234 -1.58547,2.3074 -2.32191,3.45827c-0.0773497,0.126569 -0.228404,0.116038 -0.468148,0.0876869c-0.160774,-0.020251 -0.330862,-0.0338192 -0.477867,0.0147832l0.00465718,0l-0.0336127,0.00891044c0.00992182,-0.00384769 0.0200461,-0.00384769 0.0289555,-0.00891044c-0.83404,0.0925471 -1.44332,0.370999 -2.09107,0.955038c-0.8389,0.995337 -1.26331,2.19501 -1.26331,3.49229c0,0.892665 0.199854,1.83373 0.609078,2.775c-0.170898,0.507085 -0.565138,0.951595 -0.921109,1.34608l-0.199854,0.219318l-0.25331,0.253543c-0.160976,0.151478 -0.351921,0.331307 -0.483334,0.502023l-0.014579,0.0151883l-0.0103268,0.0234912c-0.0135666,0.0538677 -0.0234884,0.156135 0.14255,0.234507l0.0384723,0.0240987l0.0439395,-0.00911296c0.775116,-0.185904 1.26291,-0.771361 1.73612,-1.33677c0,0 0.297452,-0.34123 0.340784,-0.394895c0.0735024,-0.009923 0.132628,0.0289589 0.229822,0.117456c0.0538613,0.0439447 0.116024,0.0826241 0.18487,0.116038c0,0.0204535 0,0.040097 0,0.040097c0,0 -0.00992182,0.25334 -0.00992182,0.311663c-1.83756,1.81449 -3.33575,2.83798 -5.29541,3.98925l-0.327015,0.189752l0.380876,0.040097c0.76155,0.0775614 1.48807,-0.352368 2.18948,-0.766906l0.843759,-0.463141c0.775116,-0.39935 1.49657,-1.0083 2.1994,-1.59396c0,0 0.628112,-0.527134 0.696349,-0.585659c0.0688452,0.0151883 0.14093,0.0970023 0.194792,0.165856c0,0 0.0449519,0.0435397 0.0735024,0.0737137c0.00992182,0.0188334 0.58559,1.15998 0.619607,1.22822c-0.131008,0.536854 -0.18487,1.07776 -0.18487,1.61927c0,1.17517 0.25331,2.35094 0.501963,3.49715c0.248248,1.13102 0.50176,2.29606 0.50176,3.44227c0,0.0783714 0,0.15087 -0.00465718,0.224584c0,0.35581 -0.384521,0.823609 -0.711536,0.974681c-0.731784,0.122316 -1.62434,0.132442 -2.56064,0.142365c-1.15437,0.00870793 -2.34924,0.0186309 -3.26691,0.267111c-0.291782,0.0350342 -0.633984,0.132239 -0.964846,0.224584c-0.322358,0.0872819 -0.659092,0.185904 -0.971528,0.224989l-0.028753,0.00465773l-0.0386748,0.0287564l-0.11238,0.0787764c-0.102255,0.0625756 -0.234276,0.14601 -0.263232,0.297082c0,0.0149857 -0.00506215,0.0289589 -0.00506215,0.0439447c0,0.0824216 0.0384723,0.185904 0.107318,0.248075c0.0637831,0.0690559 0.141133,0.0976099 0.224557,0.0941672c0.277001,0 0.589234,-0.117658 0.891343,-0.224584c0.209776,-0.0787764 0.42927,-0.156135 0.629124,-0.19117c1.91754,-0.326041 4.01327,-0.262453 5.43756,-0.146212c0.701614,-0.009923 1.85234,-0.0336167 2.26703,-1.03361c0.150852,-0.404818 0.204713,-0.780474 0.204713,-1.14155c0,-0.399147 -0.0627707,-0.780069 -0.125946,-1.17436l-0.127364,-0.971441c-0.0824118,-0.589507 -0.209978,-1.17982 -0.331267,-1.75536c-0.214838,-1.00891 -0.43413,-2.05285 -0.43413,-3.11116c0,-0.214863 0.00992182,-0.429726 0.0289555,-0.64459c0.0198436,-0.0287564 0.043332,-0.0585254 0.0735024,-0.0623731c0.0585185,-0.009923 0.165836,0.0775614 0.25331,0.146415c0.0969908,0.0718911 0.199449,0.15087 0.311828,0.179829c0.127364,0.0919396 0.268496,0.122316 0.399707,0.137302c0.185882,0.0234912 0.28348,0.0486024 0.341999,0.189752c0.0773497,0.926281 0.399707,1.88739 0.711536,2.81894c0.214838,0.637907 0.434535,1.29728 0.575668,1.94511c0.25331,1.12758 0.506823,2.27338 0.506823,3.4048c0,0.673144 -0.087474,1.34082 -0.326002,1.99533c-0.487789,0.896107 -1.56501,0.896107 -2.59871,0.90117l-0.312436,0l-2.54626,-0.156135c-2.17976,-0.156135 -4.43647,-0.316928 -6.74886,0.0538677c0.0151865,0 -0.516542,0.0585254 -0.516542,0.0585254c-0.286923,0.0439447 -0.555217,0.0787764 -0.844164,0.009923c-0.106913,-0.0872819 -0.194387,-0.234507 -0.194387,-0.3953c0,-0.04921 0.00992182,-0.0978124 0.0297654,-0.146415c0.414691,-0.911093 0.619405,-1.73551 0.619405,-2.46698c0,-0.590722 -0.137286,-1.11745 -0.405782,-1.58545c-0.599156,-1.14621 -1.25724,-1.94025 -2.06738,-2.49695c-0.995016,-0.990072 -1.84242,-1.87281 -2.59871,-2.73024c-0.43818,-0.0538677 -0.706676,-0.142365 -0.741706,-0.151478l-0.0969908,-0.0348317l-0.438382,0.546777c0.570403,0.540905 1.10213,1.08748 1.74523,1.67334c0.984487,0.530374 1.78005,1.48683 2.48633,2.13608c0.854086,0.993717 1.0588,2.05224 0.877574,3.23226c-0.110962,1.3959 -1.38926,1.99979 -2.25671,2.92141c-0.355768,0.662816 -0.575668,1.45807 -0.0925361,2.07229c0.311828,0.825229 1.63285,0.678206 1.79382,1.35581c0.36569,1.49331 2.95488,2.3558 3.46271,2.38982c0.501963,0.0350342 1.02377,0.595582 1.02377,0.595582c1.02863,0.75111 2.37941,0.565206 3.09095,0.458078c0.707689,-0.107533 1.97586,0.468203 2.77507,0.350545c1.18475,-0.473266 2.16093,-0.25334 3.39427,-0.35581c3.88105,0.0585254 8.28998,-0.0289589 12.2585,0.473266c0.736442,-0.0872819 1.61422,0.483189 2.30672,0.132037c0.179808,-0.298297 0.0439395,-0.546777 0,-0.795257c-1.89709,-2.9848 -2.17936,-6.33452 -1.10213,-9.58278l0.711536,0.0384769c2.58028,0.282907 4.92102,-0.0538677 7.53491,-1.56561c1.30583,-0.721746 1.99388,-2.40359 1.93496,-3.62817c-0.0435345,-0.790194 -0.317093,-1.7264 -0.184465,-2.56459c0.0485966,-0.375454 0.291985,-0.945925 0.619,-1.12191c0.131008,-0.0773589 0.614343,-0.404818 0.765195,-0.824419c0.248855,-0.677599 -0.282266,-0.999995 -0.43818,-1.09254c0.419349,-0.170716 0.819056,-1.01842 0.43818,-1.68266c-0.243388,-0.258605 -0.531728,-1.29242 -0.560481,-1.62798c-0.0925361,-0.488049 -0.107115,-0.985212 0.350908,-1.29687c1.02843,-0.542322 1.99955,-0.674359 3.07192,-1.14621c0.736644,-0.308423 1.11732,-1.07391 1.08755,-1.76204l-0.43818,-1.50141ZM24.562,68.1783c-0.132426,0.239772 -0.117442,0.3953 -0.176365,0.677599c-0.0735024,0.132442 -0.439395,-0.0435397 -0.555217,-0.116038c-0.454379,-0.24443 -0.424816,-0.117051 -0.556837,-0.541715c-0.072085,-0.283514 -0.0674278,-0.614416 0.405782,-0.862693c0.291985,-0.166058 0.882637,-0.365733 1.07257,0c0.0581135,0.248277 -0.233871,0.565206 -0.189932,0.842847ZM27.0673,71.3581c-0.604218,0.0145807 -1.02397,-0.316928 -1.30077,-1.02409c-0.28348,-0.907245 -0.380876,-1.70129 -0.185882,-2.6381c0.0631756,-0.112393 0.194387,-0.190562 0.282873,-0.15087l0.8389,-0.288374c0.282266,-0.112393 0.517352,-0.151073 0.784228,-0.0874844l0.166039,0.169906c-0.0103268,0.487847 -0.131008,0.848922 -0.141133,1.30194c-0.0490016,1.1377 -0.146195,1.47853 0.18001,2.56094c-0.121289,0.288374 -0.36488,0.15087 -0.624264,0.156135ZM61.6104,29.0709c-0.0820068,0.0874844 -0.184465,0.189752 -0.320738,0.15573c-0.311828,-0.219318 -0.195804,-0.496757 -0.17596,-0.76002c0.0635806,-0.0635882 0.0735024,-0.0972049 0.17596,-0.0972049c0.146195,-0.030174 0.228404,0.0820166 0.282266,0.160793c0.0923336,0.169906 0.10752,0.364721 0.0384723,0.540702ZM37.7616,42.8378c2.05706,-3.69156 4.55391,-6.89527 7.23138,-10.1877l3.75004,-4.26223c2.6714,-2.85235 5.62729,-5.77903 8.90453,-8.04107c0.414286,-0.235114 0.594094,-0.721949 1.0185,-0.380922l0.385533,0.35581c0.258372,0.293032 0.0340177,1.12717 -0.229822,1.36087c-0.214838,0.176184 -0.419349,0.34204 -0.623859,0.511541c0.638843,0.634059 1.56501,1.8394 2.32049,2.61927c0.33228,0.34123 0.229822,0.69785 0.825131,0.970226c0.297249,0.142567 0.384318,0.468203 0.204713,0.746655c-0.527071,0.678004 -1.40465,0.575534 -2.09695,0.751515c-2.57522,0.570471 -4.65272,1.30619 -7.49988,2.6869c-2.27696,1.21 -4.09589,2.54575 -5.74858,4.61804c-0.629327,0.780474 -1.33722,1.37079 -1.86409,2.307c-1.50123,1.92668 -2.69124,3.7357 -3.88571,5.72091c-0.424816,0.624339 -0.560481,0.936204 -1.16105,1.49675c-0.286923,0.278451 -0.545295,-0.297285 -0.726722,-0.49696c-0.0182237,-0.019846 -0.0334102,-0.05002 -0.0483942,-0.0688534c-0.0585185,0.010328 -0.120884,-0.00465773 -0.184465,-0.0433372c-0.161584,-0.210205 -0.663142,-0.298702 -0.570808,-0.664436ZM60.4309,28.5827c-0.0384723,0.713038 -0.989752,1.30234 -1.78512,1.52186c-0.335519,0.0536652 -0.647753,0.0348317 -0.949659,0.0348317c-0.0789695,-0.0532602 -0.166039,-0.122316 -0.156117,-0.200485c0.0538613,-0.336167 0.10752,-0.536044 0.131008,-0.837987l0.194994,-0.147225c0.702424,-0.14115 1.56015,-0.292222 2.26784,-0.477114c0.102255,0.0188334 0.233466,0.00891044 0.297047,0.106115ZM53.0436,30.4419l0.127364,-0.166058c0.578705,-0.273794 1.11104,-0.488454 1.74988,-0.668283l0.765195,-0.199472c0.204916,-0.185904 0.560684,-0.336977 0.770662,-0.0735112c0.00992182,0.989869 -0.730367,2.18468 -1.82784,2.6381c-0.346656,0.15087 -0.804882,0.199472 -1.21431,0.30336c-0.102458,-0.0886994 -0.434535,0.0972049 -0.53679,-0.15249c0.0633781,-0.49696 0.252905,-1.23875 0.165836,-1.68164ZM45.1979,48.033c-0.204916,0.116038 -1.98497,-0.561966 -1.7756,-0.376061c-0.424208,-0.452813 0.268496,-0.605303 -1.30178,-1.19461l-0.380674,0.0384769c-0.0485966,0.0441472 -0.185072,0.117658 -0.326002,-0.0771564c-0.014579,-0.239772 0.297249,-0.20575 0.394443,-0.498377c0.560481,-1.26306 0.248653,-2.2432 0.194792,-3.5502l0.414691,-1.07249c0.789898,-0.946532 0.785241,-1.08242 1.32163,-1.59902c0.532133,-0.751515 0.644513,-0.810648 1.36071,-1.42446c0.117442,-0.10247 0.331267,-0.179829 0.47321,-0.0637907c0.335924,0.263263 0.355768,0.439244 0.453366,0.775411c0.166039,1.24847 -0.590854,2.10732 -1.50184,2.78532c-0.644513,0.555283 -1.26331,1.42446 -1.12238,2.27723l0.0538613,0.0532602c0.298262,-0.24362 0.669014,-0.389224 0.79496,-0.69785c0.493256,-1.10084 1.81893,-1.60388 2.56064,-2.55932c0.327015,-0.575129 0.125946,-1.5652 0,-2.22822c0,0.0184284 0.974768,-0.464761 0.711536,-0.293437c0.463288,0.194815 0.404365,0.526729 0.628922,0.95119c0.439597,1.10226 0.399707,2.10124 -0.273356,3.0577l-1.85214,2.31206c-0.0289555,1.17415 0.291985,2.69116 -0.828978,3.38435ZM47.6407,36.8451c-0.444254,0.204738 -0.90248,0.248682 -1.39472,0.0188334c-0.127364,-0.166058 -0.531728,-0.307208 -0.370752,-0.555283c0.356375,-0.581002 0.960189,-1.05893 1.33094,-1.6294l0.17596,-0.0925471c0.750211,-0.906435 1.94103,-1.67273 3.06706,-2.356l0.678126,-0.29688c0.150852,-0.146212 0.496698,-0.45342 0.628719,-0.136289c0.0289555,1.18489 -0.47321,2.45321 -1.60409,3.29119c-0.68258,0.507693 -0.980032,0.410488 -1.59033,0.449167l-0.317093,0.565813c-0.072085,0.282097 -0.320535,0.570471 -0.603813,0.74139ZM41.4039,43.6091l-0.029563,0.838999c-0.0775521,0.765286 -0.42846,1.64823 -1.14992,2.07229c-0.42927,-0.101863 -0.273761,-0.619073 -0.380674,-0.971036c0.278216,-0.760223 0.808527,-1.39428 1.25298,-2.07229c0.0635806,-0.0439447 0.121289,-0.0727011 0.18487,-0.0439447l0.122302,0.175981ZM31.1691,72.7576c-0.298262,0.307208 -0.468148,0.166058 -0.771674,0.195827c-0.86745,-0.239772 -1.37427,-0.610771 -1.61766,-1.59072c-0.322358,-1.36532 -0.308386,-2.86734 0,-4.26689l0.135868,-0.107533c0.60928,-0.0674359 1.52674,-0.189752 1.78005,-0.0538677c0.248855,0.137707 -0.268294,2.59476 -0.268294,2.59476c-0.0198436,0.488049 0.2199,1.73652 0.443444,2.38071c0.0449519,0.0974074 0.54651,0.594165 0.298262,0.847707ZM37.4494,71.2404c-0.0925361,0.879299 -1.19467,1.64944 -1.73632,1.80558c-0.540638,0.156135 -2.14939,0.0771564 -2.61268,-0.0836367c-0.468148,-0.161401 -1.60045,-2.36977 -1.46782,-3.51578c0,-0.95119 0.257967,-2.45321 0.637831,-2.57552c0.380674,-0.116443 1.38521,-0.0575129 1.38521,-0.0575129c0.419349,-0.030174 0.741706,0.0720936 1.11104,0.116038c0.258575,0.10247 0.0787671,0.429524 0.166039,0.619073c0.122302,0.488454 0.150852,1.02025 0.454176,1.50728c0.423398,0.819963 1.19851,1.3068 1.96999,1.59517c0.169886,0.160996 0.0726925,0.376264 0.0925361,0.589304ZM36.2108,67.5304c0,-0.176589 0.0105293,-0.248885 0.141133,-0.30741l0.72652,0c0.64917,0.0236937 1.47835,0.233089 2.08257,-0.390845c0.345441,0.0145807 0.375409,0.424461 0.468148,0.746857c0.0820068,0.443092 0.0635806,0.726606 0.0635806,1.12575c-0.146397,0.317131 -0.307171,0.80032 -0.634186,1.00506c-0.521604,0.24362 -1.04888,0.195017 -1.55064,0c-0.756285,-0.448155 -1.30705,-1.16585 -1.29713,-2.17941ZM51.0935,64.0578c-0.97092,3.37017 -1.43421,5.10508 0.0826143,8.57327c0.014579,0.131227 0.160774,0.565813 0,0.619681c-1.6778,-0.337382 -2.12145,-0.483189 -3.69679,-0.59538c-1.45263,-0.253543 -3.87194,0.15087 -5.48474,0.137302c-1.26331,0.0435397 -2.54667,0.0874844 -3.86748,0.24848c-0.395658,-0.20494 -0.0872715,-0.64945 -0.0589234,-0.941267c0.146397,-0.453218 0.161381,-0.688129 0.204916,-1.21972c0.204713,-0.218711 0.458023,-0.10247 0.706676,-0.20494c0.848619,-0.130822 1.57028,-0.882337 1.77499,-1.67658c0.268496,-0.833734 -0.0234884,-1.76123 -0.409427,-2.55548c-0.072085,-0.234507 -0.394443,-0.414336 -0.263232,-0.64945c1.04341,-1.95463 0.307171,-3.93983 -0.0435345,-5.84626c-0.366297,-1.35621 -0.926576,-2.85438 -1.15134,-4.28228c0.0485966,-0.146212 -0.14093,-0.488252 0.181225,-0.511946l0.117037,0.0236937c1.11651,1.3554 4.31558,4.21829 5.5139,5.14983c1.19588,0.931547 4.29149,2.73692 6.30541,3.2187c0.191147,0.160388 0.161381,0.293032 0.0886889,0.512351Z" style="fill:#161922;fill-opacity:0.498039;fill-rule:nonzero;"/><path id="_48164760" d="M59.587,34.7864c0.204916,0.268528 0.341999,0.50344 0.17596,0.751718c-0.380674,0.0287564 -0.439192,-0.453015 -0.760133,-0.614416c-0.531728,-0.263263 -1.00494,0.0135682 -1.5314,0.146212c-1.3356,0.575736 -2.45271,1.72134 -3.75004,2.32056c-0.161381,0 -0.307171,-0.0145807 -0.409427,-0.130822c0.219495,-0.219926 0.575263,-0.263871 0.853681,-0.44451c1.33621,-0.877476 2.63313,-2.25718 4.30566,-2.51072c0.443039,-0.0299715 0.8389,0.131429 1.1157,0.481974Z" style="fill:#161922;fill-opacity:0.498039;fill-rule:nonzero;"/><path id="_82784152" d="M59.4851,37.0551c-0.102458,-0.327054 -0.087474,-0.854188 -0.481714,-0.927699c-0.0886889,0.20575 0,0.429524 -0.0886889,0.620491c-0.120884,0.145807 -0.326812,0.320776 -0.560481,0.262251c-1.61888,0.10328 -2.82387,1.52652 -4.203,2.26305c-0.47321,0.263871 -1.00008,0.414741 -1.50164,0.545967c-0.0439395,0.0737137 -0.0301704,0.175981 0.043332,0.219318c1.53059,0.161401 3.04215,0.307208 4.55918,0.468203l1.68772,-0.189752c0.0485966,-0.219318 -0.2199,-0.409475 -0.17596,-0.663018c0.194792,-0.687522 0.25331,-1.43924 0.0635806,-2.08707c0.131211,-0.35095 0.629529,-0.0884969 0.657675,-0.511743ZM58.3056,39.663c-0.209573,0.30822 -0.53679,0.040097 -0.823713,0.0789789c-0.662737,-0.0789789 -1.78005,0.0773589 -2.51184,-0.0151883c-0.11238,-0.0637907 -0.189729,-0.174969 -0.126959,-0.277439c0.11238,-0.185904 0.419349,-0.195827 0.61009,-0.336977c0.799212,-0.496757 1.63811,-0.974681 2.55072,-1.18954c0.166039,-0.0249087 0.301907,0.112393 0.33066,0.229444c0.106913,0.423044 0.0398897,1.10125 -0.0289555,1.51073Z" style="fill:#161922;fill-opacity:0.498039;fill-rule:nonzero;"/><path id="_81751608" d="M60.3439,44.6332c0.0485966,-0.0787764 0.11238,-0.166058 0.184465,-0.171324c0.0925361,0.0354393 0.146397,0.0787764 0.161381,0.258605c-0.014984,0.283514 -0.0826143,0.580394 -0.161381,0.89793c-0.0872715,0.35581 -0.179808,0.726201 -0.179808,1.08707c0,0.156135 0.0188312,0.317131 0.0627707,0.473469c0.209573,0.263061 0.541853,0.326851 0.932246,0.189549c0.00890938,-0.00506275 0.672659,-0.384364 0.672659,-0.384364c0.575668,-0.34204 1.1159,-0.667676 2.13117,-0.926281c0.0184262,-0.00506275 0.0234884,0.0040502 0.028348,0.00870793c0.0204511,0.0149857 0.0251083,0.0536652 0.0251083,0.102268c0,0.0840417 -0.0251083,0.204738 -0.0684403,0.298905c-0.0386748,0.0182259 -0.970111,0.433169 -0.970111,0.433169c-0.731177,0.321789 -1.49273,0.653905 -2.20487,1.06358c-0.209371,0.0386794 -0.404162,-0.0735112 -0.590247,-0.185904l-0.0485966,-0.0236937c-0.268294,-0.370796 -0.355565,-0.726606 -0.355565,-1.08768c0,-0.322194 0.0684403,-0.643982 0.14093,-0.974681c0.0635806,-0.307208 0.137286,-0.624339 0.151055,-0.961721c0.0253108,-0.0240987 0.0888914,-0.0976099 0.0888914,-0.0976099Z" style="fill:#161922;fill-opacity:0.498039;fill-rule:nonzero;"/><path id="_111035472" d="M37.4346,44.3311c0.531728,1.08728 -0.028348,2.11562 0,3.24684c0.0878789,0.322396 0.72166,0.366341 0.531728,0.751718c-0.14579,0.10247 -0.355768,0.131024 -0.516744,0.0151883c-0.291985,-0.19117 -0.39586,-0.336977 -0.468148,-0.678409c-0.0787671,-0.994527 0.716801,-2.16099 0.0151865,-3.10245c-0.204916,-0.204333 -0.50338,-0.40907 -0.795568,-0.424259c-0.634186,0.117658 -0.955937,0.795055 -1.17584,1.29343c-0.335924,1.32077 -0.428258,2.72032 0.736644,3.77924c0.677923,0.39449 1.49779,0.823811 1.54659,1.678c0.0975983,0.145807 0.301907,0.286754 0.468148,0.20494c0.204713,-0.0151883 0.233466,-0.605505 0.525654,-0.322396l0.0886889,0.199877c-0.0735024,0.238354 -0.14579,0.648842 -0.526666,0.662411c-0.189932,0.0441472 -0.399505,-0.0583229 -0.555622,-0.174564c-0.414286,-0.424664 -0.0935485,-1.07351 -0.785241,-1.35074c-1.14587,-0.356013 -1.8975,-1.56075 -2.01453,-2.69318c-0.07249,-1.08707 -0.0238934,-2.27723 0.912605,-3.23206c0.370347,-0.278451 0.852466,-0.459698 1.32568,-0.308018c0.263232,0.0449572 0.570403,0.229444 0.68744,0.454433Z" style="fill:#161922;fill-opacity:0.498039;fill-rule:nonzero;"/><path id="_111045264" d="M23.0642,52.28c-2.09087,0.970226 -2.73032,3.46677 -2.75907,3.56924l-0.0538613,0.224584l0.213825,0.0735112c0.0834242,0.0240987 2.02446,0.662816 4.39921,-0.503035c2.38913,-1.1695 2.88097,-3.54028 2.90102,-3.64275l0.0485966,-0.248682l-0.25331,-0.0384769c-0.0975983,-0.0196435 -2.43793,-0.385579 -4.4964,0.565611ZM23.2737,52.7332c1.52674,-0.711621 3.27278,-0.628996 3.93106,-0.565408c-0.185882,0.603885 -0.823713,2.17982 -2.56064,3.0336c-1.74016,0.85277 -3.23795,0.64783 -3.78365,0.531792c0.205118,-0.605303 0.877979,-2.28715 2.41323,-2.99998Z" style="fill:#161922;fill-opacity:0.498039;fill-rule:nonzero;"/><path id="_111057648" d="M25.151,47.5832c-2.09573,0.946532 -2.87085,3.41452 -2.90102,3.52226l-0.072085,0.233292l0.233466,0.0735112c0.0820068,0.0236937 2.01838,0.603885 4.39779,-0.531589c2.39926,-1.15147 2.91114,-3.43862 2.93099,-3.53562l0.0538613,-0.248885l-0.253512,-0.0449572c-0.0927386,-0.0186309 -2.32575,-0.399552 -4.38949,0.531994ZM25.3557,48.033c1.52209,-0.687724 3.1849,-0.600848 3.82354,-0.532197c-0.199449,0.59457 -0.848821,2.10124 -2.58352,2.93032c-1.727,0.825229 -3.21467,0.669093 -3.78021,0.566826c0.239743,-0.619276 1.00494,-2.27358 2.54019,-2.96495Z" style="fill:#161922;fill-opacity:0.498039;fill-rule:nonzero;"/><path id="_82872168" d="M27.8777,43.0575c-2.10241,0.922434 -3.0134,3.36957 -3.04741,3.47204l-0.0935485,0.249492l0.258575,0.0727011c0.0834242,0.0249087 2.01453,0.541715 4.39395,-0.570876c2.41282,-1.12069 2.93989,-3.32562 2.9648,-3.42283l0.0538613,-0.248682l-0.248653,-0.0486024c-0.0886889,-0.0151883 -2.20953,-0.414741 -4.28157,0.496757ZM28.0725,43.5119c1.52168,-0.669093 3.09702,-0.575736 3.71623,-0.503035c-0.204916,0.575129 -0.872512,2.01862 -2.60397,2.824c-1.71121,0.800522 -3.1843,0.687522 -3.77495,0.593962c0.28348,-0.623934 1.13676,-2.24199 2.66269,-2.91493Z" style="fill:#161922;fill-opacity:0.498039;fill-rule:nonzero;"/><path id="_111066936" d="M30.5786,38.5859c-2.10201,0.902183 -3.14542,3.32036 -3.1843,3.42283l-0.117442,0.268528l0.28348,0.0690559c0.0820068,0.019846 2.00846,0.482987 4.39759,-0.600848c2.42437,-1.09619 2.965,-3.22335 2.99011,-3.3157l0.0635806,-0.248682l-0.25331,-0.0534627c-0.0838292,-0.0204535 -2.09249,-0.429929 -4.17972,0.45828ZM30.7734,39.0439c1.51176,-0.643172 3.00874,-0.545967 3.60425,-0.473266c-0.214838,0.561561 -0.892558,1.94126 -2.62422,2.72174c-1.69157,0.770146 -3.15453,0.70271 -3.76361,0.624339c0.326205,-0.639527 1.2621,-2.22397 2.78358,-2.87281Z" style="fill:#161922;fill-opacity:0.498039;fill-rule:nonzero;"/><path id="_111358368" d="M34.324,34.1134c-2.10707,0.877679 -3.28189,3.27236 -3.33049,3.37483l-0.136273,0.282907l0.307171,0.0688534c0.0773497,0.0137707 1.99854,0.418183 4.3982,-0.634059c2.42781,-1.07411 2.99457,-3.12149 3.01805,-3.21019l0.0637831,-0.243012l-0.248248,-0.0635882c-0.0789695,-0.0141757 -1.97505,-0.443497 -4.0722,0.424259ZM34.5135,34.5715c1.5069,-0.624339 2.9162,-0.521869 3.49187,-0.443092c-0.223545,0.550625 -0.911592,1.85763 -2.64305,2.62311c-1.68772,0.74139 -3.13064,0.713038 -3.7547,0.649247c0.375612,-0.649045 1.38905,-2.19966 2.90588,-2.82927Z" style="fill:#161922;fill-opacity:0.498039;fill-rule:nonzero;"/><path id="_111528120" d="M38.4545,29.7977c-2.11233,0.85358 -3.42424,3.22842 -3.4777,3.33089l-0.159964,0.296677l0.330862,0.0637907c0.0834242,0.0151883 1.99995,0.361076 4.39921,-0.672941c2.44279,-1.04374 3.02696,-3.00849 3.05207,-3.09111l0.0688452,-0.249695l-0.249463,-0.0585254c-0.072895,-0.0188334 -1.86287,-0.468406 -3.96387,0.380922ZM38.6396,30.256c1.49131,-0.599227 2.82306,-0.492302 3.37909,-0.409678c-0.233466,0.531792 -0.941155,1.78047 -2.66755,2.517c-1.66788,0.716278 -3.09601,0.721544 -3.74012,0.677599c0.419349,-0.65917 1.51642,-2.16969 3.02858,-2.78492Z" style="fill:#161922;fill-opacity:0.498039;fill-rule:nonzero;"/><path id="_114230976" d="M42.8622,25.7212c-2.11557,0.823811 -3.5597,3.1784 -3.61863,3.28087l-0.189932,0.312271l0.361033,0.0585254c0.0834242,0.009923 1.99469,0.301943 4.39921,-0.701698c2.4513,-1.02004 3.05207,-2.90663 3.07556,-2.985l0.0789695,-0.24362l-0.243591,-0.0688534c-0.0688452,-0.0180234 -1.7515,-0.482784 -3.86262,0.347507ZM43.0418,26.1795c1.47835,-0.575736 2.7366,-0.468203 3.27197,-0.385984c-0.248248,0.517211 -0.964846,1.7021 -2.69124,2.41979c-1.64277,0.686509 -3.06199,0.731467 -3.72493,0.701698c0.473007,-0.668283 1.64297,-2.1462 3.1442,-2.73551Z" style="fill:#161922;fill-opacity:0.498039;fill-rule:nonzero;"/><path id="_48808752" d="M47.4461,21.9559c-2.12205,0.803965 -3.69598,3.13587 -3.75976,3.23368l-0.224962,0.335559l0.400922,0.04921c0.0775521,0.009923 1.98355,0.239772 4.39779,-0.736732c2.45818,-0.993717 3.08244,-2.79909 3.10593,-2.87645l0.0789695,-0.234912l-0.239743,-0.0773589c-0.0629732,-0.0200485 -1.63305,-0.503238 -3.75915,0.307005ZM47.6207,22.414c1.46843,-0.555283 2.64791,-0.443092 3.16101,-0.35581c-0.258372,0.502023 -0.995016,1.6294 -2.70663,2.32117c-1.63386,0.65917 -3.03324,0.736529 -3.71116,0.726201c0.522009,-0.677599 1.76041,-2.12109 3.25679,-2.69156Z" style="fill:#161922;fill-opacity:0.498039;fill-rule:nonzero;"/><path id="_48137184" d="M52.1023,18.5811c-2.1259,0.785739 -3.82719,3.09638 -3.90089,3.19379l-0.258575,0.347305l0.434535,0.0437422c0.0773497,0.009923 1.9795,0.179829 4.39779,-0.770551c2.47276,-0.971036 3.11039,-2.69298 3.1355,-2.76528l0.0826143,-0.234912l-0.233669,-0.0773589c-0.058316,-0.0251113 -1.52148,-0.521869 -3.6573,0.263263ZM52.2732,19.0445c1.45324,-0.531792 2.56064,-0.424664 3.04741,-0.332117c-0.268496,0.482987 -1.01385,1.55042 -2.72526,2.22336c-1.61402,0.634059 -2.99436,0.741795 -3.69132,0.746857c0.570403,-0.683269 1.8815,-2.08747 3.36916,-2.6381Z" style="fill:#161922;fill-opacity:0.498039;fill-rule:nonzero;"/><path id="_82940240" d="M19.7197,47.5498c-0.0635806,0.0773589 -1.51642,1.96475 -1.66727,4.23732c-0.15146,2.31672 1.73996,4.082 1.82359,4.15612l0.166039,0.15573l0.169683,-0.15573c0.0637831,-0.0538677 1.56036,-1.46334 1.67274,-4.11642c0.122504,-2.67253 -1.7347,-4.24866 -1.81367,-4.3159l-0.194792,-0.161401l-0.156319,0.200283ZM18.5386,52.0451c0,-0.0718911 0.00506215,-0.145807 0.0103268,-0.223166c0.107115,-1.70311 1.02863,-3.20027 1.39938,-3.74056c0.42927,0.443092 1.44879,1.68185 1.44879,3.51072c0,0.0684484 0,0.140947 -0.00445469,0.214863c-0.0886889,1.95118 -0.985094,3.16969 -1.35605,3.59415c-0.419349,-0.448357 -1.49799,-1.75536 -1.49799,-3.356Z" style="fill:#161922;fill-opacity:0.498039;fill-rule:nonzero;"/><path id="_82893400" d="M22.6693,42.4583c-0.0485966,0.0538677 -1.23334,1.36087 -1.73612,3.23368c-0.0676303,0.257998 -0.121289,0.525716 -0.156117,0.808623c-0.271939,2.24381 1.34694,4.0826 1.41963,4.16017l0.155914,0.181247l0.186287,-0.156135c0.0674278,-0.0538677 1.59377,-1.38071 1.9062,-3.96049c0.311828,-2.60408 -1.35078,-4.21322 -1.42449,-4.27681l-0.179808,-0.175981l-0.171506,0.185702ZM21.2416,47.0077c0,-0.14601 0.00850441,-0.292222 0.028348,-0.443092c0.0289555,-0.258403 0.0779571,-0.506883 0.141133,-0.741795c0.36083,-1.34568 1.11246,-2.39428 1.44838,-2.81894c0.35678,0.419601 1.12704,1.52186 1.12704,3.09253c0,0.179829 -0.00992182,0.375656 -0.0350301,0.570268c-0.223545,1.87747 -1.15984,3.04271 -1.55023,3.46211c-0.351111,-0.463141 -1.15964,-1.68144 -1.15964,-3.12109Z" style="fill:#161922;fill-opacity:0.498039;fill-rule:nonzero;"/><path id="_82889776" d="M25.98,37.6841c-0.0538613,0.0486024 -1.29713,1.20372 -1.92605,3.06742c-0.0773497,0.238354 -0.146397,0.492302 -0.200056,0.784322c-0.389178,2.17111 0.961606,4.07734 1.01486,4.16077l0.15146,0.208585l0.204511,-0.159983c0.0635806,-0.0532602 1.6292,-1.30194 2.13096,-3.80375c0.506823,-2.53198 -0.964846,-4.17515 -1.02843,-4.244l-0.166039,-0.179829l-0.181225,0.166463ZM24.2839,42.3362c0,-0.233494 0.0198436,-0.478531 0.0633781,-0.716683c0.0439395,-0.263263 0.102255,-0.493112 0.174948,-0.707773c0.449114,-1.32604 1.24448,-2.28249 1.60511,-2.66706c0.282266,0.39449 0.83809,1.35094 0.83809,2.66321c0,0.297285 -0.0289555,0.60915 -0.0975983,0.940052c-0.360425,1.80011 -1.32547,2.90764 -1.74482,3.32238c-0.279228,-0.468811 -0.839102,-1.57107 -0.839102,-2.83413Z" style="fill:#161922;fill-opacity:0.498039;fill-rule:nonzero;"/><path id="_82869456" d="M29.6176,33.2208c-0.0577085,0.0437422 -1.35463,1.05366 -2.11618,2.90278c-0.0872715,0.213243 -0.165431,0.463343 -0.232859,0.7503c-0.513302,2.0974 0.555217,4.07734 0.603813,4.15996l0.131008,0.24362l0.229822,-0.164641c0.0684403,-0.0453623 1.66282,-1.21972 2.36038,-3.63809c0.701614,-2.45847 -0.575668,-4.14113 -0.628719,-4.20998l-0.151055,-0.194815l-0.196209,0.15087ZM27.629,38.045c0,-0.34204 0.0338152,-0.703115 0.116024,-1.05366c0.0635806,-0.263263 0.137286,-0.488252 0.214635,-0.682662c0.53679,-1.29728 1.37103,-2.16483 1.75657,-2.517c0.209978,0.360671 0.584172,1.15613 0.584172,2.22437c0,0.404818 -0.0485966,0.84791 -0.184465,1.32118c-0.498116,1.72134 -1.49171,2.7752 -1.94103,3.18002c-0.194994,-0.4437 -0.545902,-1.38962 -0.545902,-2.47224Z" style="fill:#161922;fill-opacity:0.498039;fill-rule:nonzero;"/><path id="_82898896" d="M33.5586,29.0659c-0.0585185,0.0350342 -1.4093,0.897525 -2.30186,2.73166c-0.102458,0.204738 -0.194994,0.433169 -0.283075,0.726606c-0.629327,2.02389 0.165431,4.06742 0.204308,4.1549l0.112785,0.278451l0.25331,-0.166058c0.0686428,-0.0486024 1.69238,-1.14094 2.58048,-3.48176c0.901063,-2.38577 -0.181427,-4.09718 -0.229822,-4.16989l-0.131211,-0.204738l-0.204916,0.130822ZM31.2316,34.177c0,-0.483189 0.0589234,-0.999792 0.214838,-1.50647c0.0840317,-0.263871 0.161381,-0.473266 0.25331,-0.654513c0.624264,-1.28209 1.50326,-2.06257 1.90276,-2.37443c0.150852,0.311866 0.384318,0.931547 0.384318,1.76528c0,0.50668 -0.0876764,1.08768 -0.3258,1.72174c-0.619202,1.64398 -1.64905,2.64296 -2.1261,3.04879c-0.122099,-0.40583 -0.303324,-1.14236 -0.303324,-2.00039Z" style="fill:#161922;fill-opacity:0.498039;fill-rule:nonzero;"/><path id="_117735336" d="M37.7766,25.2131c-0.0585185,0.030174 -1.4579,0.741795 -2.49645,2.56094c-0.10752,0.199472 -0.209978,0.419398 -0.316891,0.69785c-0.751628,1.94977 -0.224962,4.0577 -0.200056,4.14477l0.0826143,0.321789l0.28348,-0.175981c0.0670229,-0.0386794 1.72498,-1.05852 2.80342,-3.32096c1.09747,-2.307 0.209978,-4.04716 0.169886,-4.12068l-0.11238,-0.215268l-0.213623,0.107533ZM35.0603,30.8024c0,-0.654108 0.0826143,-1.42425 0.361033,-2.15592c0.102458,-0.25334 0.189729,-0.453015 0.291985,-0.628996c0.716193,-1.25374 1.629,-1.95017 2.05321,-2.22397c0.0925361,0.258605 0.220102,0.70838 0.220102,1.32745c0,0.584242 -0.117644,1.30558 -0.502975,2.11117c-0.745554,1.57047 -1.80415,2.51173 -2.31097,2.8963c-0.0538613,-0.302145 -0.11238,-0.770348 -0.11238,-1.32604Z" style="fill:#161922;fill-opacity:0.498039;fill-rule:nonzero;"/><path id="_47326760" d="M42.2532,21.6585c-0.0637831,0.0240987 -1.5065,0.589304 -2.68739,2.38962c-0.121289,0.190157 -0.238731,0.409475 -0.36083,0.668081c-0.862388,1.87747 -0.609078,4.04757 -0.599156,4.13485l0.0439395,0.360873l0.32175,-0.174969c0.07249,-0.0386794 1.75515,-0.974884 3.02393,-3.15956c1.29692,-2.2347 0.603813,-4.00525 0.574048,-4.07795l-0.0923336,-0.229849l-0.22395,0.0889019ZM39.0589,27.9984c0,-0.770551 0.0969908,-1.99513 0.595309,-3.07755c0.110962,-0.239772 0.21828,-0.434587 0.325395,-0.600645c0.810147,-1.23329 1.76021,-1.84264 2.1994,-2.08241c0.0485966,0.201093 0.0978007,0.493112 0.0978007,0.882944c0,0.648842 -0.146397,1.53158 -0.706879,2.50647c-0.873525,1.49817 -1.96128,2.38091 -2.50151,2.75556c-0.00465718,-0.10733 -0.00951684,-0.233292 -0.00951684,-0.384364Z" style="fill:#161922;fill-opacity:0.498039;fill-rule:nonzero;"/><path id="_81988928" d="M46.9685,18.4003c-0.0637831,0.0145807 -1.55084,0.439244 -2.87773,2.21951c-0.135868,0.179829 -0.273154,0.389832 -0.399707,0.628186c-0.984487,1.80538 -0.999876,4.03866 -0.999876,4.13627l0.00526464,0.39449l0.350503,-0.175171c0.0787671,-0.0386794 1.79504,-0.90279 3.25294,-3.00849c1.48179,-2.15126 0.989752,-3.95036 0.969908,-4.02408l-0.0688452,-0.238354l-0.232454,0.0676384ZM44.1258,21.4877c0.116024,-0.219926 0.238326,-0.404413 0.36083,-0.575736c0.906327,-1.2098 1.89608,-1.74159 2.3543,-1.9366c0.00992182,0.117456 0.0251083,0.253745 0.0251083,0.434587c0,0.663018 -0.161381,1.7266 -0.975173,2.90683c-0.989954,1.42446 -2.10707,2.25313 -2.68274,2.61927c0.0536588,-0.726606 0.239541,-2.21485 0.917667,-3.44834Z" style="fill:#161922;fill-opacity:0.498039;fill-rule:nonzero;"/><path id="_82907120" d="M51.8779,15.4301c-0.0629732,0.009923 -1.58445,0.293437 -3.06726,2.03887c-1.46681,1.74159 -1.81407,4.60913 -1.82764,4.73043l-0.0485966,0.429321l0.394443,-0.175981c0.0735024,-0.0334142 1.82399,-0.818951 3.46676,-2.85276c1.6778,-2.06722 1.38035,-3.89609 1.37063,-3.96981l-0.043737,-0.243417l-0.244603,0.0433372ZM49.1913,17.7911c1.00494,-1.18489 2.0283,-1.63932 2.50151,-1.79545c0.00506215,0.009923 0.00506215,0.0151883 0.00506215,0.029769c0,0.575736 -0.151055,1.86289 -1.287,3.2671c-1.10213,1.36087 -2.25853,2.13142 -2.85769,2.48196c0.161381,-0.882134 0.609483,-2.76872 1.63811,-3.98337Z" style="fill:#161922;fill-opacity:0.498039;fill-rule:nonzero;"/><path id="_82162616" d="M4.84731,40c0,11.9831 6.47976,23.5064 16.9147,30.0859l0.434535,0.268123l0.312031,-0.405425c0.0872715,-0.112798 0.122099,-0.223774 0.122099,-0.322396c0,-0.258605 -0.219292,-0.458078 -0.341999,-0.574319l-0.603813,-0.580191c-2.15567,-2.44328 -2.73113,-4.76081 -2.73113,-6.54108c0,-1.97002 0.707689,-3.28613 0.766207,-3.38475l0.189932,-0.350545l-0.263637,-0.297285c-4.41298,-4.91998 -6.73833,-11.1052 -6.73833,-17.8982c0,-14.943 12.1514,-27.0954 27.0926,-27.0954c4.1542,0 8.13751,0.911296 11.8436,2.71667l0.385938,0.189752l5.44141,-6.21362l-0.599359,-0.335964c-5.19397,-2.89164 -11.0989,-4.41796 -17.0718,-4.41796c-19.388,1.59872e-14 -35.153,15.7717 -35.153,35.1568ZM5.95835,40c0,-18.7707 15.2731,-34.0407 34.042,-34.0407c5.54832,0 11.0351,1.37606 15.9061,3.95523c-0.716801,0.815508 -3.53075,4.034 -3.96974,4.5257c-3.74478,-1.75536 -7.75704,-2.65288 -11.9361,-2.65288c-15.5554,0 -28.215,12.6559 -28.215,28.2127c0,6.94022 2.35086,13.2749 6.79341,18.3565c-0.258372,0.590317 -0.712953,1.88274 -0.712953,3.59415c0,1.41453 0.327015,3.11137 1.3273,4.91674c-8.23652,-6.55991 -13.2349,-16.5388 -13.2349,-26.8674Z" style="fill:#161922;fill-opacity:0.498039;fill-rule:nonzero;"/><path id="_49059128" d="M52.3319,14.6212c-3.86202,-1.88274 -8.0069,-2.83413 -12.332,-2.83413c-15.5554,0 -28.215,12.6559 -28.215,28.2127c0,7.06679 2.42922,13.5186 7.02707,18.6447l0.483132,0.535639l2.14595,-3.23692l-0.11238,-0.132644c-0.194792,-0.0232887 -0.350908,-0.0538677 -0.468148,-0.0773589c0.028348,-0.0886994 0.072085,-0.204738 0.120884,-0.332117c-0.164621,-0.199675 -0.335519,-0.404615 -0.496901,-0.609353c-0.170696,0.277034 -0.335317,0.477114 -0.448102,0.609353c-0.419349,-0.44856 -1.49799,-1.75536 -1.49799,-3.356c0,-0.0486024 0.00526464,-0.10247 0.00526464,-0.15087c-2.0038,-3.53076 -3.02352,-7.51454 -3.02352,-11.8942c0,-13.4981 10.9812,-24.4812 24.4798,-24.4812c3.31024,0 6.50486,0.64783 9.513,1.92142c0.322358,-0.336977 0.639248,-0.600645 0.936498,-0.804978c-3.29182,-1.47367 -6.80211,-2.23389 -10.4495,-2.23389c-14.1173,0 -25.6007,11.4848 -25.6007,25.5987c0,6.12006 1.91127,11.4997 5.65078,16.0155c-0.213218,0.327054 -0.521402,0.790194 -0.867248,1.31713c-4.09568,-4.82784 -6.27545,-10.7932 -6.27545,-17.3326c0,-14.943 12.1516,-27.0954 27.0926,-27.0954c3.96954,0 7.77688,0.84386 11.3425,2.49189c-0.15146,0.321789 -0.293605,0.639527 -0.444457,0.956455c0.331672,-0.186309 0.605231,-0.298702 0.79496,-0.357228c0.00526464,0.009923 0.00526464,0.0151883 0.00526464,0.029769c0,0.419398 -0.0826143,1.21506 -0.565746,2.16018l0.125946,0.0635882l1.56522,-3.39468l-0.491636,-0.233292Z" style="fill:#161922;fill-opacity:0.498039;fill-rule:nonzero;"/><path id="_122255456" d="M52.0786,9.08521l-2.69772,3.41493c0.249665,0.0820166 0.493256,0.169298 0.736644,0.263263l2.67747,-3.38455c-0.234479,-0.10247 -0.472805,-0.199675 -0.716396,-0.29364Z" style="fill:#161922;fill-opacity:0.498039;fill-rule:nonzero;"/><path id="_111525640" d="M46.8024,7.51495l-1.57534,3.89751c0.249463,0.0439447 0.497711,0.0925471 0.741099,0.146415l1.57068,-3.88293c-0.248855,-0.0577154 -0.493053,-0.107735 -0.736442,-0.160996Z" style="fill:#161922;fill-opacity:0.498039;fill-rule:nonzero;"/><path id="_81748496" d="M40.5221,6.81325l-0.385938,4.13121c0.248248,0 0.498318,0.00384769 0.741706,0.00850542l0.389178,-4.11987c-0.248248,-0.00526526 -0.496901,-0.0149857 -0.744946,-0.019846Z" style="fill:#161922;fill-opacity:0.498039;fill-rule:nonzero;"/><path id="_48970056" d="M34.4012,7.28125l0.785241,4.0577c0.244806,-0.0386794 0.488194,-0.0787764 0.736442,-0.112393l-0.785038,-4.06276c-0.248248,0.0350342 -0.491636,0.0737137 -0.736644,0.117456Z" style="fill:#161922;fill-opacity:0.498039;fill-rule:nonzero;"/><path id="_47284000" d="M28.4679,8.87055l1.85761,3.72679c0.233466,-0.0836367 0.46835,-0.160793 0.706676,-0.239772l-1.86267,-3.7353c-0.233264,0.0836367 -0.468148,0.165653 -0.701614,0.248277Z" style="fill:#161922;fill-opacity:0.498039;fill-rule:nonzero;"/><path id="_48122368" d="M22.8354,11.5976l2.77001,3.16483c0.218482,-0.126164 0.438382,-0.248682 0.662939,-0.370999l-2.78479,-3.17981c-0.21828,0.127379 -0.43332,0.258403 -0.648158,0.385984Z" style="fill:#161922;fill-opacity:0.498039;fill-rule:nonzero;"/><path id="_82943656" d="M17.7202,15.4163l3.49673,2.4283c0.194387,-0.166058 0.39424,-0.327054 0.595309,-0.493112l-3.52184,-2.44328c-0.189527,0.166058 -0.384521,0.337382 -0.570201,0.508098Z" style="fill:#161922;fill-opacity:0.498039;fill-rule:nonzero;"/><path id="_111743952" d="M13.3659,20.2095l4.01834,1.5652c0.164621,-0.20494 0.330862,-0.404413 0.496698,-0.599227l-4.04689,-1.58039c-0.155914,0.204738 -0.312233,0.409678 -0.468148,0.614416Z" style="fill:#161922;fill-opacity:0.498039;fill-rule:nonzero;"/><path id="_81670368" d="M10.0065,25.7935l4.32409,0.604493c0.122504,-0.238354 0.249463,-0.468001 0.380674,-0.696432l-4.36418,-0.609758c-0.117037,0.233697 -0.234479,0.468608 -0.340581,0.701698Z" style="fill:#161922;fill-opacity:0.498039;fill-rule:nonzero;"/><path id="_82778632" d="M7.80219,31.9186l4.40772,-0.423246c0.0834242,-0.254758 0.166039,-0.513363 0.248653,-0.766703l-4.45186,0.424664c-0.0737049,0.253543 -0.140728,0.506883 -0.204511,0.765286Z" style="fill:#161922;fill-opacity:0.498039;fill-rule:nonzero;"/><path id="_49035160" d="M6.84585,38.3319l4.26638,-1.48156c0.0301704,-0.273794 0.0635806,-0.54698 0.0975983,-0.820166l-4.31558,1.50161c-0.0186287,0.263466 -0.0332077,0.531994 -0.0483942,0.800117Z" style="fill:#161922;fill-opacity:0.498039;fill-rule:nonzero;"/><path id="_82868520" d="M7.17793,44.8129l3.8523,-2.53057c-0.0204511,-0.282299 -0.0386748,-0.565813 -0.0538613,-0.852568l-3.91608,2.56925c0.0388773,0.273186 0.0739074,0.541715 0.117644,0.813888Z" style="fill:#161922;fill-opacity:0.498039;fill-rule:nonzero;"/><path id="_82947392" d="M8.8207,51.1539l3.12598,-3.44328c-0.0775521,-0.288374 -0.146397,-0.580191 -0.214838,-0.868971l-3.19341,3.51699c0.0923336,0.268528 0.18487,0.531994 0.282266,0.795257Z" style="fill:#161922;fill-opacity:0.498039;fill-rule:nonzero;"/><path id="_82847744" d="M11.7616,57.2103l2.21337,-4.20857c-0.135868,-0.273389 -0.277001,-0.545562 -0.404365,-0.824014l-2.25326,4.28754c0.145992,0.248075 0.293402,0.501415 0.444254,0.745035Z" style="fill:#161922;fill-opacity:0.498039;fill-rule:nonzero;"/><path id="_47020472" d="M15.5305,62.2577l1.18535,-4.87138c-0.195804,-0.258605 -0.390596,-0.522071 -0.57506,-0.785334l-1.20439,4.97912c0.194387,0.229444 0.394443,0.452813 0.594094,0.677599Z" style="fill:#161922;fill-opacity:0.498039;fill-rule:nonzero;"/><path id="_48970168" d="M51.527,18.4975c0.102458,0.0635882 0.204916,0.132442 0.301907,0.201093c0.0939535,-0.040097 0.181427,-0.0836367 0.273761,-0.117658c0.107115,-0.0386794 0.214838,-0.0735112 0.322358,-0.106925c-0.229822,-0.151073 -0.443444,-0.322396 -0.64917,-0.503035c-0.0678328,0.170919 -0.156319,0.3469 -0.248855,0.526526Z" style="fill:#161922;fill-opacity:0.498039;fill-rule:nonzero;"/></g></svg>